<mxfile host="app.diagrams.net" modified="2024-02-16T02:25:35.499Z" agent="Mozilla/5.0 (Windows NT 10.0; Win64; x64) AppleWebKit/537.36 (KHTML, like Gecko) Chrome/121.0.0.0 Safari/537.36" etag="TDDqtlP2ftGAHvaHxSQh" scale="1" border="0" version="23.0.2" type="device">
  <diagram name="Page-1" id="b5b7bab2-c9e2-2cf4-8b2a-24fd1a2a6d21">
    <mxGraphModel dx="2074" dy="1098" grid="1" gridSize="10" guides="1" tooltips="1" connect="1" arrows="1" fold="1" page="1" pageScale="1" pageWidth="827" pageHeight="1169" background="none" math="0" shadow="0">
      <root>
        <mxCell id="0" />
        <mxCell id="1" parent="0" />
        <mxCell id="nvwnlEwFlLKaPRoTBn40-58" value="package" style="shape=folder;fontStyle=1;spacingTop=10;tabWidth=40;tabHeight=14;tabPosition=left;html=1;whiteSpace=wrap;" parent="1" vertex="1">
          <mxGeometry x="160" y="100" width="1240" height="660" as="geometry" />
        </mxCell>
        <mxCell id="nvwnlEwFlLKaPRoTBn40-2" value="&lt;p style=&quot;margin:0px;margin-top:4px;text-align:center;&quot;&gt;&lt;br&gt;&lt;b&gt;PedidoController&lt;/b&gt;&lt;/p&gt;" style="verticalAlign=top;align=left;overflow=fill;fontSize=12;fontFamily=Helvetica;html=1;whiteSpace=wrap;" parent="1" vertex="1">
          <mxGeometry x="320" y="160" width="200" height="60" as="geometry" />
        </mxCell>
        <mxCell id="nvwnlEwFlLKaPRoTBn40-3" value="&lt;p style=&quot;margin:0px;margin-top:4px;text-align:center;&quot;&gt;&lt;i&gt;&amp;lt;&amp;lt;Interface&amp;gt;&amp;gt;&lt;/i&gt;&lt;br&gt;&lt;b&gt;IPedidoUseCase&lt;/b&gt;&lt;/p&gt;" style="verticalAlign=top;align=left;overflow=fill;fontSize=12;fontFamily=Helvetica;html=1;whiteSpace=wrap;" parent="1" vertex="1">
          <mxGeometry x="320" y="280" width="200" height="60" as="geometry" />
        </mxCell>
        <mxCell id="nvwnlEwFlLKaPRoTBn40-4" value="Use" style="endArrow=open;endSize=12;dashed=1;html=1;rounded=0;exitX=0.5;exitY=1;exitDx=0;exitDy=0;entryX=0.5;entryY=0;entryDx=0;entryDy=0;" parent="1" source="nvwnlEwFlLKaPRoTBn40-2" target="nvwnlEwFlLKaPRoTBn40-3" edge="1">
          <mxGeometry width="160" relative="1" as="geometry">
            <mxPoint x="416" y="385" as="sourcePoint" />
            <mxPoint x="576" y="385" as="targetPoint" />
          </mxGeometry>
        </mxCell>
        <mxCell id="nvwnlEwFlLKaPRoTBn40-6" value="" style="endArrow=block;dashed=1;endFill=0;endSize=12;html=1;rounded=0;entryX=0.5;entryY=1;entryDx=0;entryDy=0;exitX=0.5;exitY=0;exitDx=0;exitDy=0;" parent="1" source="nvwnlEwFlLKaPRoTBn40-7" target="nvwnlEwFlLKaPRoTBn40-3" edge="1">
          <mxGeometry width="160" relative="1" as="geometry">
            <mxPoint x="356" y="105" as="sourcePoint" />
            <mxPoint x="576" y="385" as="targetPoint" />
          </mxGeometry>
        </mxCell>
        <mxCell id="nvwnlEwFlLKaPRoTBn40-7" value="&lt;p style=&quot;margin:0px;margin-top:4px;text-align:center;&quot;&gt;&lt;br&gt;&lt;b&gt;PedidoUseCase&lt;/b&gt;&lt;/p&gt;" style="verticalAlign=top;align=left;overflow=fill;fontSize=12;fontFamily=Helvetica;html=1;whiteSpace=wrap;" parent="1" vertex="1">
          <mxGeometry x="320" y="400" width="200" height="60" as="geometry" />
        </mxCell>
        <mxCell id="nvwnlEwFlLKaPRoTBn40-8" value="&lt;p style=&quot;margin:0px;margin-top:4px;text-align:center;&quot;&gt;&lt;i&gt;&amp;lt;&amp;lt;Interface&amp;gt;&amp;gt;&lt;/i&gt;&lt;br&gt;&lt;b&gt;IPedidoRepository&lt;/b&gt;&lt;/p&gt;" style="verticalAlign=top;align=left;overflow=fill;fontSize=12;fontFamily=Helvetica;html=1;whiteSpace=wrap;" parent="1" vertex="1">
          <mxGeometry x="200" y="520" width="200" height="60" as="geometry" />
        </mxCell>
        <mxCell id="nvwnlEwFlLKaPRoTBn40-9" value="Use" style="endArrow=open;endSize=12;dashed=1;html=1;rounded=0;exitX=0.5;exitY=1;exitDx=0;exitDy=0;entryX=0.5;entryY=0;entryDx=0;entryDy=0;" parent="1" source="nvwnlEwFlLKaPRoTBn40-7" target="nvwnlEwFlLKaPRoTBn40-8" edge="1">
          <mxGeometry width="160" relative="1" as="geometry">
            <mxPoint x="416" y="385" as="sourcePoint" />
            <mxPoint x="576" y="385" as="targetPoint" />
          </mxGeometry>
        </mxCell>
        <mxCell id="nvwnlEwFlLKaPRoTBn40-10" value="&lt;p style=&quot;margin:0px;margin-top:4px;text-align:center;&quot;&gt;&lt;br&gt;&lt;b&gt;PedidoRespository&lt;/b&gt;&lt;/p&gt;" style="verticalAlign=top;align=left;overflow=fill;fontSize=12;fontFamily=Helvetica;html=1;whiteSpace=wrap;" parent="1" vertex="1">
          <mxGeometry x="200" y="640" width="200" height="60" as="geometry" />
        </mxCell>
        <mxCell id="nvwnlEwFlLKaPRoTBn40-11" value="" style="endArrow=block;dashed=1;endFill=0;endSize=12;html=1;rounded=0;exitX=0.5;exitY=0;exitDx=0;exitDy=0;entryX=0.5;entryY=1;entryDx=0;entryDy=0;" parent="1" source="nvwnlEwFlLKaPRoTBn40-10" target="nvwnlEwFlLKaPRoTBn40-8" edge="1">
          <mxGeometry width="160" relative="1" as="geometry">
            <mxPoint x="416" y="385" as="sourcePoint" />
            <mxPoint x="576" y="385" as="targetPoint" />
          </mxGeometry>
        </mxCell>
        <mxCell id="nvwnlEwFlLKaPRoTBn40-13" value="&lt;p style=&quot;margin:0px;margin-top:4px;text-align:center;&quot;&gt;&lt;i&gt;&amp;lt;&amp;lt;Interface&amp;gt;&amp;gt;&lt;/i&gt;&lt;br&gt;&lt;b&gt;IGatewayPagamentoService&lt;/b&gt;&lt;/p&gt;" style="verticalAlign=top;align=left;overflow=fill;fontSize=12;fontFamily=Helvetica;html=1;whiteSpace=wrap;" parent="1" vertex="1">
          <mxGeometry x="440" y="520" width="200" height="60" as="geometry" />
        </mxCell>
        <mxCell id="nvwnlEwFlLKaPRoTBn40-14" value="Use" style="endArrow=open;endSize=12;dashed=1;html=1;rounded=0;entryX=0.5;entryY=0;entryDx=0;entryDy=0;exitX=0.5;exitY=1;exitDx=0;exitDy=0;" parent="1" source="nvwnlEwFlLKaPRoTBn40-7" target="nvwnlEwFlLKaPRoTBn40-13" edge="1">
          <mxGeometry width="160" relative="1" as="geometry">
            <mxPoint x="280" y="460" as="sourcePoint" />
            <mxPoint x="830" y="660" as="targetPoint" />
          </mxGeometry>
        </mxCell>
        <mxCell id="nvwnlEwFlLKaPRoTBn40-15" value="&lt;p style=&quot;margin:0px;margin-top:4px;text-align:center;&quot;&gt;&lt;br&gt;&lt;b style=&quot;background-color: initial;&quot;&gt;GatewayMercadoPagoService&lt;/b&gt;&lt;/p&gt;" style="verticalAlign=top;align=left;overflow=fill;fontSize=12;fontFamily=Helvetica;html=1;whiteSpace=wrap;" parent="1" vertex="1">
          <mxGeometry x="440" y="640" width="200" height="60" as="geometry" />
        </mxCell>
        <mxCell id="nvwnlEwFlLKaPRoTBn40-16" value="" style="endArrow=block;dashed=1;endFill=0;endSize=12;html=1;rounded=0;exitX=0.5;exitY=0;exitDx=0;exitDy=0;entryX=0.5;entryY=1;entryDx=0;entryDy=0;" parent="1" source="nvwnlEwFlLKaPRoTBn40-15" target="nvwnlEwFlLKaPRoTBn40-13" edge="1">
          <mxGeometry width="160" relative="1" as="geometry">
            <mxPoint x="670" y="660" as="sourcePoint" />
            <mxPoint x="830" y="660" as="targetPoint" />
          </mxGeometry>
        </mxCell>
        <mxCell id="nvwnlEwFlLKaPRoTBn40-21" value="&lt;p style=&quot;margin:0px;margin-top:4px;text-align:center;&quot;&gt;&lt;br&gt;&lt;b&gt;ProdutoController&lt;/b&gt;&lt;/p&gt;" style="verticalAlign=top;align=left;overflow=fill;fontSize=12;fontFamily=Helvetica;html=1;whiteSpace=wrap;" parent="1" vertex="1">
          <mxGeometry x="680" y="160" width="200" height="60" as="geometry" />
        </mxCell>
        <mxCell id="nvwnlEwFlLKaPRoTBn40-22" value="&lt;p style=&quot;margin:0px;margin-top:4px;text-align:center;&quot;&gt;&lt;i&gt;&amp;lt;&amp;lt;Interface&amp;gt;&amp;gt;&lt;/i&gt;&lt;br&gt;&lt;b&gt;IProdutoUseCase&lt;/b&gt;&lt;/p&gt;" style="verticalAlign=top;align=left;overflow=fill;fontSize=12;fontFamily=Helvetica;html=1;whiteSpace=wrap;" parent="1" vertex="1">
          <mxGeometry x="680" y="280" width="200" height="60" as="geometry" />
        </mxCell>
        <mxCell id="nvwnlEwFlLKaPRoTBn40-23" value="Use" style="endArrow=open;endSize=12;dashed=1;html=1;rounded=0;exitX=0.5;exitY=1;exitDx=0;exitDy=0;entryX=0.5;entryY=0;entryDx=0;entryDy=0;" parent="1" source="nvwnlEwFlLKaPRoTBn40-21" target="nvwnlEwFlLKaPRoTBn40-22" edge="1">
          <mxGeometry width="160" relative="1" as="geometry">
            <mxPoint x="776" y="385" as="sourcePoint" />
            <mxPoint x="936" y="385" as="targetPoint" />
          </mxGeometry>
        </mxCell>
        <mxCell id="nvwnlEwFlLKaPRoTBn40-24" value="" style="endArrow=block;dashed=1;endFill=0;endSize=12;html=1;rounded=0;entryX=0.5;entryY=1;entryDx=0;entryDy=0;exitX=0.5;exitY=0;exitDx=0;exitDy=0;" parent="1" source="nvwnlEwFlLKaPRoTBn40-25" target="nvwnlEwFlLKaPRoTBn40-22" edge="1">
          <mxGeometry width="160" relative="1" as="geometry">
            <mxPoint x="716" y="105" as="sourcePoint" />
            <mxPoint x="936" y="385" as="targetPoint" />
          </mxGeometry>
        </mxCell>
        <mxCell id="nvwnlEwFlLKaPRoTBn40-25" value="&lt;p style=&quot;margin:0px;margin-top:4px;text-align:center;&quot;&gt;&lt;br&gt;&lt;b&gt;ProdutoUseCase&lt;/b&gt;&lt;/p&gt;" style="verticalAlign=top;align=left;overflow=fill;fontSize=12;fontFamily=Helvetica;html=1;whiteSpace=wrap;" parent="1" vertex="1">
          <mxGeometry x="680" y="400" width="200" height="60" as="geometry" />
        </mxCell>
        <mxCell id="nvwnlEwFlLKaPRoTBn40-26" value="&lt;p style=&quot;margin:0px;margin-top:4px;text-align:center;&quot;&gt;&lt;i&gt;&amp;lt;&amp;lt;Interface&amp;gt;&amp;gt;&lt;/i&gt;&lt;br&gt;&lt;b&gt;IProdutoRepository&lt;/b&gt;&lt;/p&gt;" style="verticalAlign=top;align=left;overflow=fill;fontSize=12;fontFamily=Helvetica;html=1;whiteSpace=wrap;" parent="1" vertex="1">
          <mxGeometry x="680" y="520" width="200" height="60" as="geometry" />
        </mxCell>
        <mxCell id="nvwnlEwFlLKaPRoTBn40-27" value="Use" style="endArrow=open;endSize=12;dashed=1;html=1;rounded=0;exitX=0.5;exitY=1;exitDx=0;exitDy=0;entryX=0.5;entryY=0;entryDx=0;entryDy=0;" parent="1" source="nvwnlEwFlLKaPRoTBn40-25" target="nvwnlEwFlLKaPRoTBn40-26" edge="1">
          <mxGeometry width="160" relative="1" as="geometry">
            <mxPoint x="776" y="385" as="sourcePoint" />
            <mxPoint x="936" y="385" as="targetPoint" />
          </mxGeometry>
        </mxCell>
        <mxCell id="nvwnlEwFlLKaPRoTBn40-28" value="&lt;p style=&quot;margin:0px;margin-top:4px;text-align:center;&quot;&gt;&lt;br&gt;&lt;b&gt;ProdutoRespository&lt;/b&gt;&lt;/p&gt;" style="verticalAlign=top;align=left;overflow=fill;fontSize=12;fontFamily=Helvetica;html=1;whiteSpace=wrap;" parent="1" vertex="1">
          <mxGeometry x="680" y="640" width="200" height="60" as="geometry" />
        </mxCell>
        <mxCell id="nvwnlEwFlLKaPRoTBn40-29" value="" style="endArrow=block;dashed=1;endFill=0;endSize=12;html=1;rounded=0;exitX=0.5;exitY=0;exitDx=0;exitDy=0;entryX=0.5;entryY=1;entryDx=0;entryDy=0;" parent="1" source="nvwnlEwFlLKaPRoTBn40-28" target="nvwnlEwFlLKaPRoTBn40-26" edge="1">
          <mxGeometry width="160" relative="1" as="geometry">
            <mxPoint x="776" y="385" as="sourcePoint" />
            <mxPoint x="936" y="385" as="targetPoint" />
          </mxGeometry>
        </mxCell>
        <mxCell id="nvwnlEwFlLKaPRoTBn40-34" value="&lt;p style=&quot;margin:0px;margin-top:4px;text-align:center;&quot;&gt;&lt;br&gt;&lt;b&gt;CategoriaController&lt;/b&gt;&lt;/p&gt;" style="verticalAlign=top;align=left;overflow=fill;fontSize=12;fontFamily=Helvetica;html=1;whiteSpace=wrap;" parent="1" vertex="1">
          <mxGeometry x="920" y="160" width="200" height="60" as="geometry" />
        </mxCell>
        <mxCell id="nvwnlEwFlLKaPRoTBn40-35" value="&lt;p style=&quot;margin:0px;margin-top:4px;text-align:center;&quot;&gt;&lt;i&gt;&amp;lt;&amp;lt;Interface&amp;gt;&amp;gt;&lt;/i&gt;&lt;br&gt;&lt;b&gt;ICategoriaUseCase&lt;/b&gt;&lt;/p&gt;" style="verticalAlign=top;align=left;overflow=fill;fontSize=12;fontFamily=Helvetica;html=1;whiteSpace=wrap;" parent="1" vertex="1">
          <mxGeometry x="920" y="280" width="200" height="60" as="geometry" />
        </mxCell>
        <mxCell id="nvwnlEwFlLKaPRoTBn40-36" value="Use" style="endArrow=open;endSize=12;dashed=1;html=1;rounded=0;exitX=0.5;exitY=1;exitDx=0;exitDy=0;entryX=0.5;entryY=0;entryDx=0;entryDy=0;" parent="1" source="nvwnlEwFlLKaPRoTBn40-34" target="nvwnlEwFlLKaPRoTBn40-35" edge="1">
          <mxGeometry width="160" relative="1" as="geometry">
            <mxPoint x="1016" y="385" as="sourcePoint" />
            <mxPoint x="1176" y="385" as="targetPoint" />
          </mxGeometry>
        </mxCell>
        <mxCell id="nvwnlEwFlLKaPRoTBn40-37" value="" style="endArrow=block;dashed=1;endFill=0;endSize=12;html=1;rounded=0;entryX=0.5;entryY=1;entryDx=0;entryDy=0;exitX=0.5;exitY=0;exitDx=0;exitDy=0;" parent="1" source="nvwnlEwFlLKaPRoTBn40-38" target="nvwnlEwFlLKaPRoTBn40-35" edge="1">
          <mxGeometry width="160" relative="1" as="geometry">
            <mxPoint x="956" y="105" as="sourcePoint" />
            <mxPoint x="1176" y="385" as="targetPoint" />
          </mxGeometry>
        </mxCell>
        <mxCell id="nvwnlEwFlLKaPRoTBn40-38" value="&lt;p style=&quot;margin:0px;margin-top:4px;text-align:center;&quot;&gt;&lt;br&gt;&lt;b&gt;CategoriaUseCase&lt;/b&gt;&lt;/p&gt;" style="verticalAlign=top;align=left;overflow=fill;fontSize=12;fontFamily=Helvetica;html=1;whiteSpace=wrap;" parent="1" vertex="1">
          <mxGeometry x="920" y="400" width="200" height="60" as="geometry" />
        </mxCell>
        <mxCell id="nvwnlEwFlLKaPRoTBn40-39" value="&lt;p style=&quot;margin:0px;margin-top:4px;text-align:center;&quot;&gt;&lt;i&gt;&amp;lt;&amp;lt;Interface&amp;gt;&amp;gt;&lt;/i&gt;&lt;br&gt;&lt;b&gt;ICategoriaRepository&lt;/b&gt;&lt;/p&gt;" style="verticalAlign=top;align=left;overflow=fill;fontSize=12;fontFamily=Helvetica;html=1;whiteSpace=wrap;" parent="1" vertex="1">
          <mxGeometry x="920" y="520" width="200" height="60" as="geometry" />
        </mxCell>
        <mxCell id="nvwnlEwFlLKaPRoTBn40-40" value="Use" style="endArrow=open;endSize=12;dashed=1;html=1;rounded=0;exitX=0.5;exitY=1;exitDx=0;exitDy=0;entryX=0.5;entryY=0;entryDx=0;entryDy=0;" parent="1" source="nvwnlEwFlLKaPRoTBn40-38" target="nvwnlEwFlLKaPRoTBn40-39" edge="1">
          <mxGeometry width="160" relative="1" as="geometry">
            <mxPoint x="1016" y="385" as="sourcePoint" />
            <mxPoint x="1176" y="385" as="targetPoint" />
          </mxGeometry>
        </mxCell>
        <mxCell id="nvwnlEwFlLKaPRoTBn40-41" value="&lt;p style=&quot;margin:0px;margin-top:4px;text-align:center;&quot;&gt;&lt;br&gt;&lt;b&gt;CategoriaRespository&lt;/b&gt;&lt;/p&gt;" style="verticalAlign=top;align=left;overflow=fill;fontSize=12;fontFamily=Helvetica;html=1;whiteSpace=wrap;" parent="1" vertex="1">
          <mxGeometry x="920" y="640" width="200" height="60" as="geometry" />
        </mxCell>
        <mxCell id="nvwnlEwFlLKaPRoTBn40-42" value="" style="endArrow=block;dashed=1;endFill=0;endSize=12;html=1;rounded=0;exitX=0.5;exitY=0;exitDx=0;exitDy=0;entryX=0.5;entryY=1;entryDx=0;entryDy=0;" parent="1" source="nvwnlEwFlLKaPRoTBn40-41" target="nvwnlEwFlLKaPRoTBn40-39" edge="1">
          <mxGeometry width="160" relative="1" as="geometry">
            <mxPoint x="1016" y="385" as="sourcePoint" />
            <mxPoint x="1176" y="385" as="targetPoint" />
          </mxGeometry>
        </mxCell>
        <mxCell id="nvwnlEwFlLKaPRoTBn40-48" value="&lt;p style=&quot;margin:0px;margin-top:4px;text-align:center;&quot;&gt;&lt;br&gt;&lt;b&gt;ClienteController&lt;/b&gt;&lt;/p&gt;" style="verticalAlign=top;align=left;overflow=fill;fontSize=12;fontFamily=Helvetica;html=1;whiteSpace=wrap;" parent="1" vertex="1">
          <mxGeometry x="1160" y="160" width="200" height="60" as="geometry" />
        </mxCell>
        <mxCell id="nvwnlEwFlLKaPRoTBn40-49" value="&lt;p style=&quot;margin:0px;margin-top:4px;text-align:center;&quot;&gt;&lt;i&gt;&amp;lt;&amp;lt;Interface&amp;gt;&amp;gt;&lt;/i&gt;&lt;br&gt;&lt;b&gt;IClienteUseCase&lt;/b&gt;&lt;/p&gt;" style="verticalAlign=top;align=left;overflow=fill;fontSize=12;fontFamily=Helvetica;html=1;whiteSpace=wrap;" parent="1" vertex="1">
          <mxGeometry x="1160" y="280" width="200" height="60" as="geometry" />
        </mxCell>
        <mxCell id="nvwnlEwFlLKaPRoTBn40-50" value="Use" style="endArrow=open;endSize=12;dashed=1;html=1;rounded=0;exitX=0.5;exitY=1;exitDx=0;exitDy=0;entryX=0.5;entryY=0;entryDx=0;entryDy=0;" parent="1" source="nvwnlEwFlLKaPRoTBn40-48" target="nvwnlEwFlLKaPRoTBn40-49" edge="1">
          <mxGeometry width="160" relative="1" as="geometry">
            <mxPoint x="1256" y="385" as="sourcePoint" />
            <mxPoint x="1416" y="385" as="targetPoint" />
          </mxGeometry>
        </mxCell>
        <mxCell id="nvwnlEwFlLKaPRoTBn40-51" value="" style="endArrow=block;dashed=1;endFill=0;endSize=12;html=1;rounded=0;entryX=0.5;entryY=1;entryDx=0;entryDy=0;exitX=0.5;exitY=0;exitDx=0;exitDy=0;" parent="1" source="nvwnlEwFlLKaPRoTBn40-52" target="nvwnlEwFlLKaPRoTBn40-49" edge="1">
          <mxGeometry width="160" relative="1" as="geometry">
            <mxPoint x="1196" y="105" as="sourcePoint" />
            <mxPoint x="1416" y="385" as="targetPoint" />
          </mxGeometry>
        </mxCell>
        <mxCell id="nvwnlEwFlLKaPRoTBn40-52" value="&lt;p style=&quot;margin:0px;margin-top:4px;text-align:center;&quot;&gt;&lt;br&gt;&lt;b&gt;ClienteUseCase&lt;/b&gt;&lt;/p&gt;" style="verticalAlign=top;align=left;overflow=fill;fontSize=12;fontFamily=Helvetica;html=1;whiteSpace=wrap;" parent="1" vertex="1">
          <mxGeometry x="1160" y="400" width="200" height="60" as="geometry" />
        </mxCell>
        <mxCell id="nvwnlEwFlLKaPRoTBn40-53" value="&lt;p style=&quot;margin:0px;margin-top:4px;text-align:center;&quot;&gt;&lt;i&gt;&amp;lt;&amp;lt;Interface&amp;gt;&amp;gt;&lt;/i&gt;&lt;br&gt;&lt;b&gt;IClienteRepository&lt;/b&gt;&lt;/p&gt;" style="verticalAlign=top;align=left;overflow=fill;fontSize=12;fontFamily=Helvetica;html=1;whiteSpace=wrap;" parent="1" vertex="1">
          <mxGeometry x="1160" y="520" width="200" height="60" as="geometry" />
        </mxCell>
        <mxCell id="nvwnlEwFlLKaPRoTBn40-54" value="Use" style="endArrow=open;endSize=12;dashed=1;html=1;rounded=0;exitX=0.5;exitY=1;exitDx=0;exitDy=0;entryX=0.5;entryY=0;entryDx=0;entryDy=0;" parent="1" source="nvwnlEwFlLKaPRoTBn40-52" target="nvwnlEwFlLKaPRoTBn40-53" edge="1">
          <mxGeometry width="160" relative="1" as="geometry">
            <mxPoint x="1256" y="385" as="sourcePoint" />
            <mxPoint x="1416" y="385" as="targetPoint" />
          </mxGeometry>
        </mxCell>
        <mxCell id="nvwnlEwFlLKaPRoTBn40-55" value="&lt;p style=&quot;margin:0px;margin-top:4px;text-align:center;&quot;&gt;&lt;br&gt;&lt;b&gt;ClienteRespository&lt;/b&gt;&lt;/p&gt;" style="verticalAlign=top;align=left;overflow=fill;fontSize=12;fontFamily=Helvetica;html=1;whiteSpace=wrap;" parent="1" vertex="1">
          <mxGeometry x="1160" y="640" width="200" height="60" as="geometry" />
        </mxCell>
        <mxCell id="nvwnlEwFlLKaPRoTBn40-56" value="" style="endArrow=block;dashed=1;endFill=0;endSize=12;html=1;rounded=0;exitX=0.5;exitY=0;exitDx=0;exitDy=0;entryX=0.5;entryY=1;entryDx=0;entryDy=0;" parent="1" source="nvwnlEwFlLKaPRoTBn40-55" target="nvwnlEwFlLKaPRoTBn40-53" edge="1">
          <mxGeometry width="160" relative="1" as="geometry">
            <mxPoint x="1256" y="385" as="sourcePoint" />
            <mxPoint x="1416" y="385" as="targetPoint" />
          </mxGeometry>
        </mxCell>
        <mxCell id="nvwnlEwFlLKaPRoTBn40-57" value="" style="shape=image;verticalLabelPosition=bottom;labelBackgroundColor=default;verticalAlign=top;aspect=fixed;imageAspect=0;image=https://blog.cleancoder.com/uncle-bob/images/2012-08-13-the-clean-architecture/CleanArchitecture.jpg;strokeColor=#e4e5da;imageBorder=none;imageBackground=none;" parent="1" vertex="1">
          <mxGeometry x="160" y="840" width="762.47" height="560" as="geometry" />
        </mxCell>
        <mxCell id="nvwnlEwFlLKaPRoTBn40-59" value="" style="shape=image;verticalLabelPosition=bottom;labelBackgroundColor=default;verticalAlign=top;aspect=fixed;imageAspect=0;image=data:image/png,iVBORw0KGgoAAAANSUhEUgAAAXsAAAIFCAYAAAAz/l0nAAAAAXNSR0IArs4c6QAAAARnQU1BAACxjwv8YQUAAAAJcEhZcwAAFiUAABYlAUlSJPAAAABhaVRYdFNuaXBNZXRhZGF0YQAAAAAAeyJjbGlwUG9pbnRzIjpbeyJ4IjowLCJ5IjowfSx7IngiOjM4MCwieSI6MH0seyJ4IjozODAsInkiOjUxN30seyJ4IjowLCJ5Ijo1MTd9XX1Ad+bfAABuA0lEQVR4Xu3dD3xT1d0/8A/DFFlCIQVMrAT6B2rDXCuSCgS2pk7SR5fKqo+Ux0d8HomM1v1I52ycFhnxYRS13VzDtHWuOClDYboOCCJBbfgXVhrEoJJaaQWCtVVotDSijcDv3JvbNi0F2oJCc7/v1yvNveeenHsS9HPPPfemHaRUKs+AEEJIWPuB8EwIISSMUdgTQogIUNgTQogIUNgTQogIUNgTQogIUNgTQogIUNgTQogIUNgTQogIUNgTQogIUNgTQogIUNgTQogIUNgTQogIUNgTQogIfD9hn6iBZqSw3FuJOugShWVCCCEX5Xv4Fcd6LPm7CSmnXSj9tQW240Lx+STeh6ctszHR70CBsQhOofj81Mh81IQ7J6sgHxosCfg8sP3RjLJ93JoRxRszodxjRfFnBuTcHgf5YD9cf8iCpZLbLofuwXzMnTEeikgJV8A1AM+GIphfdAfXCSFkgPoeRvZ2FD1lQ51Ug+w/WWC40Ai/PegHebCusLdBL8XsogIYZyjRVmOHbaMNtm0eNEcooRohVGkXk4XcSQdRNs8Ag6E96NUwrliJvNvViAochIN7PXs4PmqDTCHnX0YIIQPZ9/bHS6RJ2Vj+hAFxrecZ4YcG/ZJHsKqmt10zwmrLRNxhG7J+VQq/UAqpnI3XffDxBcGRffy3rO17zVjVUQnQmMtgSVXAV2VF9lJ75+sJISRMfG8XaP37S2F6rAL1snOM8BMz8ftF/Ql6ThNOcAkdPRFzk6TBIo6/PehDNNThtS5lOhgmKYDjThRT0BNCwtT3ezdOTVnPgc+CftkiI26M6E/Qc2xYvdED/w/iYChYi7VlhTDN0rBR/dn8x+q7BXo8oiKBwCceuIQSQggJN9//rZftgX+1EPgTDLCwoE+GG2VLzP0I+iDPajOy5lmwamc9WmVq6OdbUP5SPvQhA33et23CQldtARrTE0LC1/cf9hwu8BcLgf9MNjRc0C9bhIoaYXt/HXdh3ZMmGLPmoqiyCYGRWhh/oxM2nssJfBMApGOS2AGHEELC0+UJew4f+KWo2FiB0osOejnkXa4B+OAorUYjW4oYfk2w6Jw2welho3rFdBjnq4UyQggJL9/b3TjfLSOs6/WQfliN6rpWth4B1eQ0JEe3wf3CPCxaz03RtN9nX4SspQ7+VR2kelhKTdDIAf9hF3btb0Qba0OZmAxFUzlynuxWnxBCBpjLN7K/pOpw4Ggboq7XwZBhYA89Jg71wv6cRQj6C/DbYfl1EWwHmoBoDfRCG8mj2lDnqRMqEULIwBUmI3tCCCHnEyYje0IIIedDYU8IISJAYU8IISJAYU8IISJAYU8IISJAYU8IISJAYU8IISJAYU8IISJAYU8IISJAYU8IISJAYU8IISJAYU8IISJAYU8IISJAYU8IISJAYU8IISJAYU8IISJAYU8IISIwQMJeCm2qlv0ML7rFa2GzWWEU1iGdjcJ/2GB7KR86oej7IcXspytgW1+O/DShiBASVgZE2CtmW5BrNsNq1odd4HcxahiGCIvfrygMkwiLhJCwNED+Bq0UerMVOalRaN5WAlOhHb34M+JXPG5knzelCRUGE8qEsu9a8v3LYPqPCDjnPIKyM/TnhwkRiwEyjeOHvdCEkm3NiErNCf8R/ndIPmY8FNLLc/5ACLl8BtAF2rMDXyZsIYQQcn4DZBonlBTahUUwpyvRuKUQ5hVOtApb+kaK5Nm5yM5IgUouTFgHfKh/owSPPe/snCaab4VtlgKuP8yDPcEC4y1qNjJm5acC8B2txj9XFKCiJlgV0MGyJg+a4xUwPNuM/IV3ImWMHJLBbJO/CZ63y2AJafvsaZyQ1y/sOrEjT81G/n1pGD9KGmyP2/9HNhTllcHNVqVJs5G7IKNzf9z2+i0oebwUTm6HaRasfVhz9hnRx8F9nWtKidvvY2y/E0L26z92EJV/taB0d8hkWsfnlAOHegmMM+PBf6yn/PDuLkf+kzb4gjUJIZfBYJlMZhGWB4gAvHsc8I7UIj09HdqRXmzb40WbsLXX0hbBmjMFw7+qxY63qvB+bQOuGqtG3A1TMXnIbrzx7pfBepNvwz2JMnw+eCp+MW00Pql+C1Xv1aLhtBLjJyRAk5KAY1sdqOM7EAPdXVpEf+NHwkwDbvjmA2zf+Q48R1owVJWAeK5t6X688c4xvumY1LuhHeNHzZrN2BcsCb7+ZA3WbA6WcNTzi2GdNxWKwX7U7g7uv7YJUCoHo9a2A4fYQSL/jzmYGvl1x/aGwWOhnnADpt44FM4t+9ByJgI/PP05vrw6FqoRLXBvfAuuWtbO/n1wfdjQQ1+4/VrZfqdAGbLfQ1/KMHZ8PG5IvRUJn9vhqA8EKwuf06lr9bgt8WtUvbUr+Jmy9x0zXoOUETuwqbolWJcQ8r0bgGHPaQ/8aXzgp7Bw3twezr0Vq8GkE2vw0GMrsW2vC669Tmx+fxR+pk+ASnoGGza7ggcQPsQUUEbW4VljLkodXF0XnFsrsH/kzzDzhgTEjv4AG50sfdvDWjEap958FP/7f6+iimu7yoFNm0/iR7droE5U4dt1b+IDrnZvwn5KHp6cfxOGf+GC9YHO/bucW7GBD3pODFJubMUa86NY2d6/LR9glE6PhBgZsH4TXJ/Xwc3KB0++k+3zGHbn/R4vuFhdFvR8C937Ms6I3y3UYlQL2+/8zv1Wbd+EV98diqlpk/Cj669D7b92gG9B+JyGs3dmzf4tyndz9ds/03hER8rwwQYnuE+JEPL9G9BfqvK3BXAGEkgj5UJJH1QWYdGKkOkaTs1+eLnBp1wJTbCkQ9PuMti7VAY8K7bAw44IiphpkA4SCjknD8D+vEdYEfgrsM7VhDOSsZh4q1DWC7qZGigH+eD8s+Ws/XdyoOh31uB0TQcP9nu5gigobw6W9IXqDi3iJAF4thRia/d5spoy/PMd1vZINfQzhDKBd2dR1/o12+DhEn6oDIpgCSHkMhigYS9F8oLlWJIRD/9uK3KLuVnrvpNPzkT24kJYny3D2n9UoGJ9HjSRwsYu/PDWeIXlUJ/Bf5I9dT84fOaFXVgM5f6CC18pomKA0GPD+cRfI2UHjyPwVAkF5zJSg8wHLSh8pgRla9h7+YcNeVP6f89S/Aju8nczvDv87IB6Nkcjl+ByKCcE14P8aKrtXt8N31fsKTIKqmABIeQyGIBhHwx6S0Yc/FVW5Cyz9+MCrRT6ReUof8IIw01KSNr8OLhnC7a87kD9uaaVvxWee3KytevFx9OBrmcMXQTwzQlhsbcC52uPvZuZ+Vi10gJjejKUQ1ndul3Y8qYNjo/O9ypCiJgMsLDvDPpWLuiX9ifoGekcGKbJEThsgzlzLnIeMmFRYSlKn9/PxrI9YaPx8T2MksclQcXOBAK+I9gvFPFGqnr8dQeZsSo2om9G04focbTckxPfBNioWIWkSULBWaSYc4cWUae9sP32TszNNsG0uIi9l1Lsv4jroXVfcJ8sG43/RNrjWYhOyU3KNOHIu8F1QsiVbQCFfdegz+5v0HMmKcDN8rcdq0fozLp0VirUPU7jAHEpRiR3yXspMhdMh3JQAAddr3dN70g1Zt7V7TpCogmGJAnLRw8c7/b+btdNOw+w96nA9HlGqIWyrpKhGMGeTjah/sOQdqWZSE081zSOHIrpwuI5eDdUwwsJ1OlmzOz+hYZEI+68ibXNvZfOm4YIIVewARL2Zwf9RU1Q7NyPI6wB6WQjShabkL0gG6alZVh9rxKtPY6GA/ANTcOyF6zIY3WzF5iw7C+rYUySIvCxDSvXtnYdqbe0Yex9K1G2NNh2ttmKtU/pWWT74HqlFK7eZz3865dj5b+bIYnNROGaElhyuf2z/i62oqyU+4VpTuw/xN5MpAbGP1tg4vaXuwxlf7sPytazP6XqxibWVzlS7n2Mfx+Fizp+DVtXh0thXV+PgFwD04vlKDS377eEvZdMxKEeFYVFcAnVCSFXtgER9oo5lmDQ7y1loXwpfi+ODQV/sqHeFwHVFD0MGQZMj25ExdK1bDTbkzbUrbJgXZ0UKbcbWH09kke3wruzDPkLy+DpHt7HHTA9X4m2mGDbhtQ44JgHtmXZsJx1a8uF+GH/fS6KXvegCUpoZnL7N0CfJEdbnQd1rIbtyWLYan2IGKOBntufVonGjRasDd6X2YX/hRL84wMfJGO0/PsYe/W5LyB4XjAh/zk76r+WQZ0q7FcThdYP7Sh9zISyji+TEUKudAPnF6FlpKF642X4FmbHN0OzYKkUys7p3N+AJYSQy2mATOOw0e3lCHpCCAkTA+xuHEIIIf1BYU8IISJAYU8IISIwAH/FMSGEkL6ikT0hhIgAhT0hhIgAhT0hhIgAhT0hhIgAhT0hhIgAhT0hhIgAhT0hhIgAhT0hhIgAhT0hhIgAhT0hhIgAhT0hhIgAhT0hhIgAhX0PdI+/ApttLSxpg4SSK5UUs5+ugG19OfKv+L4SQi4nCvsBLQrDJMIiIYScB4X9gOZF2UOZMMyai4JK+k3VhJBzo7AnhBARuDLDPlEDzUhhubcSddAlCsuEEEK6uAL/UpUeS/5uQsppF0p/bYHtuFB8Pon3ofCJ2VC3OlBgLIJTKL6gkTpk/3Yu0q5XQDqYrZ/ywfv2WmyKnIvsKYDrD3NgCZkekadmI/++NIwfJYWErx+A/9hBVP7VgtLd/mAlznwrbLMU7PUWuGeYMEejCrbv82BdoQWr9o9F5uOsPEUo93vhWmeF5TUP//IgOXQPPoa5MyZAESlMzPdQT7d4LfKmNKEiIxdlZ7i+GmG1ZUJRVYTs7Yl44oF0xMmDr/cfdaJ8UUHvPlNCSFgZLJPJLMLyFaIOroORuEmvg/5nCWjZ7kDtSWFTT1jQP22ZjYmDWJAuewK2Y0L5hUj1sPz5IejGDoG/Zgfe+vf7qG2KwPhpt2HqdYMwePApNOx+FY5DwepqFuDWeVOgGOxH7e63UPVeLQ59KcPY8fG4IfVWJHy+FY76tmDlybfhnkQZTl2rRUpUI3Ztd6Huq+EYGxuDpJRYRE6chTk/9sNp34X3j5zE8PgEJExORnTdBjg/CTaB+U9jRUYCBjXug2PHO/B01EtBzKcV2CH0Kyb1bmjH+FHz8hvYx5fchNvuUUN2Sgl9+g34uvpN7GJ9bfjBdUiIjYcmJRI7N7nwJV+XECIWV2DYA4EmF3Z4IjE5XYeZt5wn8EODfokZq2qE8l7QPVqA/xw/CPXr8/HLpzbAtdcFl3MrKt6+CpMzkjB6cKAz7McZ8buFWoxqccH6QC5KHawuq1+1fRNefXcopugm4YbEaNSu34EGrnE+7BUYfnIHFv1yOTZxdSs3oCl+FrTxMUhQfIqKx3Px7BbWTtXbeEsyCb+4IQYyfIANziauBSB5En5UZcWDRa+iiusbV+/bH+EXk2IwesgxvOqo46udK+wVI4APVszHb8t38311bvkAo3R6xF83HFLPRjgb+cqEEJG4Yi/Q+veXwvRYBeplGmT/yQJD9zn8xEz8flF70D/Sp6Dnpop0ailwvBqrXgidOmGOr8Kb+1uFlSDVHVrESQLwbCmEPWS2hldThop3WP2Rauind73X3bu3DKGtO/YfBDf2D3gqsbKmc3rIX1EHLnujFNcHCzgvFuDxLtM6rN5r9fCyZ2mUKlhwPod3oXBraGc92PYRdyCRQTYqWEIIEY8r+24cFqQ9Bj4L+mWLjLgxoj3o+3rZQYWoSBa6n3jgEkpCtX0rLAjiR8jYz2Z4d3RP+iBHUxPOQA7lBKGA50dTbbf6LQE+7NtO+oLr7fwBBNiTZMiw4DpPCtXM2chbaoW1tBwV/6hAxfpMxAlbL8TfWMN60JX7C65EiqgYgL6CRYi4XPm3XrYH/tVC4E8wwMKCPhlulPFTN/2/vtwW6Dm8Lz81jM+sRknufdAlSCE52Qj3zi3Y8i8XhEkeQgjpk4Fxnz0X+IuFwH8mGxou6JctQkWfpm5CncA3bCgtvTaRjfHPJh8aISwF1X3BTetEQfUTabCgG51CwUbKTTjyrlBwsdKyoJ8ggX+vFXOyjMh5yAxLcSlK1zXyZwaEENJXAyPsOXzgl6JiYwVKLyroOZtQc5Q9RU+HcWbXAJcmmfDzpK5h791QDS8kUKeboe+e94lGZN4kA5o8cLzb/7OMLmKiwO2mucHZZSpGPS+lx4MTIYRcyMAJe06NDWXPl8F2UUHP8aPsn074WKRqcleiZLEJ2Quy2cGkBCuXpuCrI92mdw6Xwrq+HgG5Bqa/laPQnN1Rf+1TmYgfVI+Kwj/AdYmyHm8f4C/Eqv6jBE8L+8p7Zi0KbwTrMyGE9N3ACvtLqbIA2cts8DSxUJ2ihyHDgLQEwL2qAP9sPDu1PS+YkP+cHfVfy6BONfD19ZootH5oR+ljJpRdxLWDs3AHlxdd8LbJO/aVHLELpY9wByhCCOm7K/AbtIQQQi418Y7sCSFERCjsCSFEBCjsCSFEBCjsCSFEBCjsCSFEBCjsCSFEBCjsCSFEBCjsCSFEBCjsCSFEBCjsCSFEBCjsCSFEBCjsCSFEBCjsCSFEBCjsCSFEBCjsCSFEBCjsCSFEBCjsCSFEBMI07KXQpmr5P9pNLiHpbBT+wwbbS/nQCUWEkIEhLMNeMduCXLMZVrOeAv9SGjUMQ4RFQsjAEqZ/g1YKvdmKnNQoNG8rganQDr+w5cqQDOMyE/RDnMjKKxPKCCHkuxOm0zh+2AtNKNnWjKjUHH6ELxO2XBnkGBOjgJSGyYSQ70kYX6DtGvjFV1zgE0LI9ydMp3FCSaFdWARzuhKNWwphXuFEq7Cl7+TQPZiPuTPGQxEpCRYFfPBsKMIjL7pxhu0reXYusjNSoJJ3bq9/owSPPe/kp5J0j7+CvKlnH3bq1xtgeiG4rL4rH6ZfdLYR8HlR/S8rCl7z8OvtpEmzkbsgAylj5JAMZgX+Jrg3WeFNWQZDbD0qDCZ0ThL10LdTAfiOVuOfKwpQURMs4ugWr0XelCZU5FVC9es50IyRAh9XIMNUhyV/z4PmeAUMC0Na7t4Prt36LSh5vBTOK2v+jBDRGiyTySzCcpgKwLvHAe/IaUhPT4d2pBeOPV5W2ldqGFdYYbxZgSGttdjxVhXer61FwxkllINrsWnnISAtH9acqRj+Vfv2Blw1Vo24G6Zi8hAnNr/bglNDfgh8/iWGjlVheIsbtrdcqGXtvL/XhZpP2V7ms1CfkwRZSBtDYpORNDUNk07bsPV9oeeJRvzh93OQNPw0GlwO7NjnwSH/aNx4qwHXDxuMwYN9qFmzGfv4ylLoF5Ui35CA4YEGuLbvwDsHWN9PKzF+QgI0aVMx1M3qHuMrIyb1bmjHRCAqWY2Tbz6F3EXP4KXNXEsx0N2lRfTJGqzh1zk6LHomB1Miv0bt7rdQ9R5rd/BYqCfcgKk3DoVzyz60CDUJIZePCEb27bgRPhvZp18L72smmF70CuW9ozGXwZKqgK/Kiuyl57jgm5aHZTc4UcDOHjq2J7LRdZEeisM2ZP2qVCjX8SPklOauI2SMM8L6p0yoGmzIZ3U7xvFSPSwvmKA56cAiYxHcUPEHnszYVriKs2HZ2tkb6cwlKM1NYecgISP7NAvWPqxBBBud57P9hZ4ftNeX1azDvXmrgmcf/MheCt9OC+Y+6QpW5OlgWdN9ZK9D3tIkOJ+0hozi1TA9/zT01x2FLSsHpZ3dI4RcJqL6UpW/LYAzkEAaGSWU9JYOhkkK4LgTxecKek5lERaFBj2nZj+83NBWrkRKsOScVHdoEScJ4IA9JOg5fjucH7FWFWOh4dZZ+CfHShCo2YrCkKDn+LcWYddhYUWQOTOZHep8qF7dNeg5XH3Hx4AkUYM5QlmQH3XsbOPCHChaHBr0HA/2e7mCKChvDpYQQi4vkYS9FMkLCrAkIx7+3VaYit1CeW/FIyoSCHziwYXiTz45E9mLC2F9tgxr/1GBivVsJMxe2xvxI7i5fAmS59tgs3V9mCZz3xhQQJXGnm5WsSWg+XBlDwcePwKnhUVB1DAJcPIIPFVCQRcs1D/jWpFDMSNYEtSMRqeweCEjNch80ILCZ0pQtoa953/YerwuQQi5fEQQ9lzQLw8GfZUVOcv6f899W+B8r5RCn78K5U8YYbhJCUmbHwf3bMGW1x2o79OktQ+e11nAb+zpsQnOeqEa09bWLCx9FwI479sVSGfmo3ylBcb0ZCiHBuCv24Utb9rg4M5ECCFXjDAP+2DQWzLigkG/1N7PO3FO4JsAa21MEpKFkrNI5+Dn06IQOGyDOXMuch4yYVFhKUqf38/GyL3j+5rrnQxtn3Cv6+mxCnZuiibQhjb2pByn517Wjeqs+/ebT7DODx0L9RShoAsp4q9hZw2BRhzcKRT1mhRz7tBCftoL228zMTfbBNPiIr6v+78UyaUgQgaIMA77zqBvvaig57ARtYeNVBXTYZyvFsq6mXQN5IPYaPtYfdcLoLNSoT7XNM4IBbTCIse9vY6N6yWYqM/GOfYStHM/jrDuSNR6ZCcKZQL5XQswPVpYEVTsPMDOZuRIudd4VrvSmXnQxbKsr6tm77KvkqEYwZ5ONqE+5NZNSDPx00SaxiHkShK2vy4hNOjPefdMX3B3xJSaoJED/sMu7NrfyEbXEVAmssBrKseDT8qw9JVs3Cjzw1u1C+7P2NYxKUhjYdwcUEABF4ruscARbAxG6yvIjPsW3t1b4G6NR1SLGQUvSqFfXArTFLaTFi9cVW40fs2qX61EvDoeSm8Z5i4LtqC63wrrXXGQcPf5O3ehroWdE8RPx/RYH7y+OMRFh95n33O7fP2Jckh8LlizLbALH1LHffZd7tPnnH03jmHpWmRPknZ+JlerkDJjIttPGxQKwPWHLFgq+aqEkMsoLO+zV8wpQNHdCWjdywLuic2X5j7vQB0c2xsQeX08YmMSoFYnIIEtj/6Bj43IN8D5oQtVn0Ri8o+vR8x4blsClD+ow4anN2HwjCmIRgOcrzlwKNgY9n0swaSUJMRPYHVjfojmva/i7Q8CqNvuQMMINeJj45GQGGwnYexoXNXiwdb1/4D7aPA++5Z3N2P/NzFQx8UiPlHN1xt9+hDefHYxGibeDbU89D57rl07Dl2VwPoWC/XEYP2YEV+jwbURzy4qhiPkaBi8z94f8vp2Z99nX7uHfSY33oDrxwn9VQ5Cne0pdpYwA1PGDELD7lfhCL5pQshlFL6/CC0jDdUbbfAJJeIhRfaza2EY1/0btIQQMQvTOXs/7KIMekZ6F+K5OfumIxe8TZQQIh4iuc9eLNgZzUO3Qi1hWV/jQF+/TUAICV8i+nUJ4UX3aBmMMX4cqTsQ/Ibu1UpMvCkZcSMlCDQ5UGwsEi4GE0IIhf2ApZqTj/yfp0AZKQn+pkkm0NKEg1UVWP1XG9wXffsRISScUNgTQogI0Jw9IYSIAIU9IYSIAIU9IYSIAIU9IYSIAIU9IYSIAIU9IYSIAIU9IYSIAIU9IYSIAIU9IYSIAIU9IYSIAIU9IYSIAIU9IYSIQJiGvRTaVC37+T2bXwybbS0sacI668HspytgW1+O/I4yQgj5/oVl2CtmW5BrNsNq1n//gd9FFIZJhEVCCLmMwjLsm9ZZULatGVGpOZc58L0oeygThllzUVApFH1nDMgrKUfZozphnRBCOoXpNI4f9kITSkICXyZsCV8KqMbIIaMzCUJID8L4Am3XwC8WReATQkjPRPCXqqTQLiyCOV2Jxi2FMK9wolXY0ndy6B7Mx9wZ46GIFIbQAR88G4rwyItunOEu0M5SwvWHLFiEaRvd4rXIm9KECoMJZcEinvqux2D6xc1QyYPtBHxeVP/LioLXPPw6R/f4K8ib+hkq5pThxEPZuEujgpT7E4TcPiuKYFnlZoc0wLjChsxY/iUh/CH9YJ/BAguMt6ihEOa0/E0eVP7VgtLd9PcLCRGDwTKZzCIsh6kAvHsc8I6chvT0dGhHeuHY42WlfaVmoWqF8WYFhrTWYsdbVXi/thYNZ5RQDq7Fpp2HgMm34Z5EGRp2vwoHW+XEpN4N7Rg/atZsxr5gEdTsoLBsTjKGfdXeTgOGxCYjaWoaJp22Yev7wd7F/PQ/2WuBIazd6VFHsH27C54jJzE8JgYxSVOR8MWrePsj9o8YEYnWhpMYfb0SVx12YvMON2prD2B/tRt1X0qhX1yKvFtUGPSpC44d7/BtjJ5wA2665aeIrtsI5yf87gghYUwEYc/pGvgpQ1ggvtsibOsdjfkp5NwYCV+VFfMeKsW2vS642MO5dUMw6Dm9CftxRiz+f1qMOGpD/vzl2MC3w/rzxjEkpGuRPHY0PtjgRBP3Wj7soyD7YgPyHyzCJq5u1dt46+sf4fbJKiiHfYu19g/Q8CHXRix0/6XG0A/X4tE/vsrWuaBnjaQtQsHd8QjsZf02l2Gn0MaG9yIxQ3cTJkYH2yCEhLcwnrM/m78tgDOQQBoZJZT0lg6GSQrguBPFS+381El/qe6YhriIAA7Yn0fnhA3jt8P5EWtZMRYaoSjID/eGlV3q+te7cYQN/iVDoy54p1HmzGRWpwm7Vnbrd0059jewTyN6Int3hJBwJ5KwlyJ5QQGWZMTDv9sKU7FbKO+teERFsvODTzxwCSX9FT9chkHsgJM8fyNsNluXh2kyF90KqLp8AasJ3jeFxQ6fwX+SPcmVSAkWnFMUf6O/Avpnu+6L+/KXIWYQwA588cGqhJAwJoKw54J+eTDoq6zIWdb/kXlb4FJdzPTB8zoL3I09PTbBWS9Uu1ROeuHscV/coxJ9PfQRQgaeMA/7YNBbMuKCQb/U3s87cU7gmwBrbUwSkoWS/vJ904ozkKHtk+dR+nxpD49VsB8WKl8CJ7iOD41A6xs97Yt7VFz02Qoh5MoXxmHfGfStFxX0HDba9nDz6dNhnK8WyvrHvb0OvjMSTNQvwMW11DNpVNdJmU3vHkQACkyfd7l/dQQh5HIK07txugZ99kVeVOXu5qn5dwsSbtXiRzfqMWt6AqJViZik0cJw7y+RNakFr/f21stP9sEf/zNob0iG3vATJIxRIfFGDTQzDMi634j7kn2o2BF8cfBuHPbal9/ouG0zKAa6u7SIRgOcrzkQrD0cUwxaXBetxKTRCsTfmgndVW9j24ajkE1LQ9JELX6RPgkqRTySNGx/t2TCaFyAdMVr2PwO3wAhJIyF5cheMccSDPq9pTBddNAL/HZYfl0E24EmIFoDfYYBhgw9kke1oc5Th95/M80P++9zUfT6ATQNVkEzk2uHPXTJUJ6qw9a3q4V6feVA0d8cOOKXQ821eXMU2r7gyj0oe9SCVTu9aI1UQ8f3m9s+HhHHd8G+I8y/U0cI4YXpN2ilLIzTUL3RBp9QQgghYiaCX5dACCFEJPfZE0KIuFHYE0KICFDYE0KICFDYE0KICFDYE0KICFDYE0KICFDYE0KICFDYE0KICFDYE0KICFDYE0KICFDYE0KICFDYE0KICFDYE0KICFDYE0KICFDYE0KICFDYE0KICIRp2EuhTdXSH9gmhBBBWIa9YrYFuWYzrGY9BT4hhDCDZTKZRVgOG/4PnGi5Toefpv4Uuut8eMtZh4CwjRBCxCgswx4s2uucb8EXEvhvs8BvE7YSQojYhGnYcyjwCSGk3SClUnlGWA5TUmgXFsGcrkTjlkKYVzjRKmzpOzl0D+Zj7ozxUERKgkUBHzwbivDIi27wH6Q0GbMXZiNjsgryoXwN4KQP3r3/hPXJCniEIkAHy5o8aI5XIGuNBMsfTEecnLV5yg/v7nLkP2lD27RsFLDyeK6c8X1kQ8njpXD6+VXGCKstE4qqIlgO6GCarYGKu0hxivXpNVa2yo2xd1lCylnbrldgXRraD6Y/fX7hBMwP3gXNmOBVkYDPg4pCC1bt7+gcIeQKEsYj+3YBePc44B05Denp6dCO9MKxx9uPOXw1jCusMN6swJDWWux4qwrv19ai4YwSysG12LTzEAtNPfKfy4chcThON7jg2PEOPLUNOKUcj/hEDdKmDcX+N/bhGN9eDHR3aRF9eggm624A9r2JXe814KroBMRMSMaNoxW49b9vhay2Eg6XBw0/uA7qCTdg6o+/hc3+gdD/m3DbPWrITimhTRmFRqcDrvqTGH5dDGJunIrYYTdg1n+q4f+3nbV9CCfl45FwvQbJ19Vio7OBb6HffU6fjlFHtvN9O/TVcMTGxiBpagJaXnsbtXxdQsiVRAQj+3bcCJ+N7NOvhfc1E0wveoXy3tGYy2BJVcBXZUX2Ujt6Gr/qHn8FeVOHoH59PkwvhI6dpdAvLoVpigyeV+bikdWt7CxAGCVH+uF+YR4WrRdaHMdG63/KRBwbzHP7ymH7Cp6JaJD/kgXaSA9WZZqxji8Ljuzj0AR73gOw1gj/lGkWrH1Yw/Ya6NoX6X0oXD0b6mYHFj1QBDer3r8+d2uX1c0sWAljUgQ8q+/EI6+cCZ7lEEKuGKL6UpW/LcBCSAJpZJRQ0ls6GCYpgONOFJ8j6IFM3JokY3WqsapLaHL8sP/RgXq2b/XkLHaIFYo5LR5saw96zmE7Dn7OLTShunxryJSTC65DrJ4kCmMnCUXtDldj5Ych8VrpxsGT7PnkAVSG9sX/Guq4AX2UAtfznehvn92wdanvR8X+I+zQIoFsON3sSsiVSCRhL0XyggIsyYiHf7cVpmK3UN5b8YiKBAKfeFjknksUhg09Tx1/HZpb2PMoBaYFS4KOe2EXFoO88H/DPfvhP8wXdGj7lvspg2wEv9rB31gDf5ehtA8Bbp6H/fAFCwR+BE6zJ8kQDOPXL1WfmSY/f/E76hpNcJ0QckURQdhzQb88GPTctMiyc43ML6wt0N9XEkLI5RXmYR8MektGXDDoO+a/++oEvmEjZemYJCQLJWdrxomTbNB8nRo9jm2lwtlB00HsFoouv4HYZ0JIf4Rx2HcGfetFBT1nE5weNqpXTIdxvloo664C/65hexiZgvvOqiOF/jc6xCGAg67XceVcvRyIfSaE9EeYhn3XoOfunul/0HP8qFhWBpdPgrhZhVj7rAWmBdnIXmCC5ZkylDyq469f2p5a2UOdPBS+tBqmKXL4qkrwxCvcXS1XjoHYZ0JI34Vl2CvmWIJBv7cUpnPePdNHfjssvy6C7UATEK2BPsMAQ4YeyaPaUOepC4YhVye7AOv2eUPq6DD+B41wrSu4BAed78BA7DMhpM/C9D57KQutNFRvtHW7G4UQQsRJRF+qIoQQ8RLBrZeEEEIo7AkhRAQo7AkhRAQo7AkhRAQo7AkhRAQo7AkhRAQo7AkhRAQG4dH36T57QggJc4OumnYfhT0hhIQ5msYhhBARoLAnhBARoLAnhBARoLAnhBARoLAnhBARoLAnhBARoLAnhBARoLC/gj2/5m8IOJfjL4O4v3DL/HwhvDtewonV85AWLDmvv7z8UvD1wjohRLwo7AeSYRJhgRBC+obCfiB55Y9Q/eR/MOzelagUigghpDco7AkhRATCI+xnpOL+RGG5t2bcipwZwjIhhIS5MAj727Bl8Tz85Y+/xWO9DfwZc1H9u7mw5i3E/ULRBS1ajoCzBPY5o5Hzu/+D185d/GSPHX/F5y//Bk/3cOC47Ve/wXuv/zVYjz1OvL4cG36VDOFya4eYmXOw4eUSnNghtPmWFTvypmFo+4XZDvPwHtv++Z9vE9aDuNev7+H1VwvbuxqN/zL9BvtD+nW+90AICQ9hEPabsaBoN2p+OBH/15vA54P+VtyIwygpWoEXheLeks9goXjLCDS+txsvv7Ebmz/6ClePS8ZD+b/Fb1RCJeY2dnBY99/JiDnVgM2s3stvuHHoqmjc9t8Lscc0ujPwZ8zDxkW34bYxwCG3i2+zwuNH4iwjMq8V6pyP8Prbe/X60XjoT4vx0pxkqK/6HJVvd3sPv1+Ov1DgExKWwuZXHMfMzGahNw2JXx3A737zFJbXCBtCsaDfs/hWTBrEgv7/fgfTTqG8N7iR/c+jgdYDeGTeU3jmqFDO3La0EOt/dg2adpZC9chu4GY2Av9DKhI/3Y07Zpeyw5FgDDsLKZuDW9rc+J87/og1ZybiLy//FveP+wqVz/4O+r9/LlRk7+fO32B7XjKuRQNenJ6PX57h/pm4kX0qlO+8gtH/j2u16+vT2evb/zG51+9gr1dyr9c+hl9yhXN+i89NE3H14W3IumclXg/5l4/579+i+lcTMeKjNzHhf8pxSCgnhISHsLlAe2hrKX78+LZzj/BnzMH2/H4GfYhDezZ2CXrO5sV78e63gDKGjeTZetodE5E4OIB/sz51BD3n6Ga8UevHmZGjoePG9mN+irRxrPwjJ34ZEvScQ/8sR6X3AsfhkNcvWNMZ9Bz+9d36+X8/m4AR+BKVq1/E5m5NH/r7SlQcZgsTJiI/WEQICSPhdTfOzpU9Bz4f9Ldh2lVc0C/pd9ADX+FjzwFhOdSX8J1kTyOGI5M93ThCyn5KMPV+YU485PH0ZCmL+RGIyWJVZgxnSyxovXt7GEl/jq9PCYvnEvr6s44LZ79eKZMAJz/Hu2xIf/Zh5HN4jn/Fnlnf7g6WEELCR3iFPad74M+4A3Yu6HEQz/Aj+guMli/kfAH8TQCNwiJ3YHh3a3BO/OyHE5vrQ/rR1nVU32cX+3pCSNgLv7DnhAb+03chjQv6gqV4pN8j+nY/xLXxo4XlEDePR6yMPTc34GX21PhVgP2U4Oujpbjv/3p6lOOZPazKFwF8zZ6Uqp+yn91NxIiI7nfjdBP6+rOqcq8XFgWNraxfQ0fjxtsHnV0do6Ee+UN2MGMj/38IRYSQsBGeYc/hA/81vPjGNvzukgR9UOJNc/BfY4QV3mg88UASYgcF8O7et/iSl7cdYiN8CabOzEbXmyS7ecMDTytwdeI0rOp2F8yNv5qD26KFlXMJef1L07sGOP/6bnfj/M55mB0chiPt3vtxW7e0j/nvecgcB3xdfwDPCWWEkPBBf3C8t/i7cUbjiy+AEVd9js07D+MLFuixycmYei0bxXe5w2U0Hvrz/+Hpm9hIubUBlXsOo7GNFUcMh1odA6V3A8Y+tBncDTZpjy7HhjuicXXbl+xgcQCeL1n7MRORFufHoS+ikXjN+e7G6eXr2+/GEfr1FOvXoJB+8fUTh+PqLw7gkV92vdOIEBIewndk/50IYN/fy1BSJ0XazGn4r//QYOrIAGp2b+52K+PneOb/PQnTGyxMEY20W7i67DFjAmLaDqFiuwvtV0grn3wMs//uRs1XP8SN04L1pkV9gQrrH7H7ZEeD59T+ek+PrxcqdeD69Tvk/vMgDrHgb+/XbXESHHrnTZgo6AkJWzSy7y1+ZD8CldYc6F8RygghZICgkT0hhIgAhT0hhIgAhT0hhIgAhT0hhIgAXaAlhBARoJE9IYSIAIU9IYSIwCA8+j5N4xBCSJgbpFQqwyrsdTodHA6HsEYIIYRD0ziEECICFPaEECICFPaEECICFPaEECICFPaEECICFPaEECICFPaEECICFPaEECICFPY8KbSpWvZzoJJi9lP/hG19OfLTuv0l8Z5MycNf/2VDxTNGjO1FdULIwEdhzyhmW5BrNsNq1g/QwI/CMImw2Bs/lCCCQp4QUaFfl8CTQm+2Iic1Cs3bSpBbaEersOVKk3z/Mpj+IwLOLDPKhLJzuj0PJf+lhnelEQWVQhkhRJRoZM/zw15oQsm2ZkSl5qCYjfBlwpYrjXzMeCikQ4S1C7huLFRyGSKEVUKIeFHYdxg4gU8IIX1F0zhnkUK7sBDm9GvRuKUQeSuc7DDQT1ItspcYkXa9AtLBbP2UH00fVqLsiVI4Oxo1wmrLhKKqCNnbE/HEA+mIkwcn4P1HnSh/vAC2Y2wlzYK1D2vOvqbwcQUMC8uge/wV5E39DBUZuSg7M49vM06o0qHFhaJ7LHCwfRZvzIRyTxHmLHWg4z+AXvVXjcxHTbhzsgryocGSgM8D2x/NKNsXXCeEXHkGy2Qyi7AcFmJiYnDo0CFhrT8C8O5xwDtyGtLT06Ed6YVjj5eV9pFUD0tpHnRjB6Gp2oEd+zw4dHI0JibdBN1Po1G70YkGvuJNuO0eNWSnlNCn34Cvq9/Ervdq0fCD65AQGw+NJhI7N7nw5ekI/PD05/jy6lioRrTAvfEtuGprUbt/H1wfNiDmp/8J7Rg/al5+A/vYCdvVw1rR8M1oJCiugnfnZuxws7o1+1HlrkNL+z4/ceLV7cJn1av+SjG76Fncf5MMLe+/BYfLg9rGU4hSKYH3K+C4mI+dEPKdorDvUdfATxnixOZ3W4RtvaN7tAD/OT4AV/E8mF/cCddeF6oqN2D/sBnQ3TQR0afXYev7XM1g8CpGAB+smI/flu/m6zq3fIBRqTMRP2YEpJ6NcNbUwc3KB0++k4X6Mex+eCleYOtc0HO6hn0DarhtcWm4J3EoPvrHoyh6la3zQc85O+zP3d+fdPT3zffnYoHpR5Af3gxj3rPYze3DuRUbNjvg/uRrfN3nIyIh5PtCc/bn4W/j0ksCaWRUsKDXMjEzSQo07ELZ1q6TQJ7V+9F4RoKxE1KFEsHhXSjsUteDbQebcAYyyEYJRd+Z8/XXHdLfJpzgNkdPxFyufju/D76uLyOEXGEo7HskRfKCAizJiEfrbitMxW6hvLeiMIybz47Wo8Rmgy30sdbAf5FJek18sKrA31hz1rUB9xdciRRRMcH1704v+zvIhtUbPfD/IA6GgrVYW1YI0ywN5MFGCCFXMAr7s3QGvb/Kiuxl9n5foA0cdsK2kQVmT483+3oA+e5dqL9nznAjfTOy5lmwamc9WmVq6OdbUP5SPvQD89tohIgGhX0XXNAv7wj6nKX9DfoT+CYASCSt2PR8KUp7eqx3CXWvBH3s73EX1j1pgjFrLooqmxAYqYXxNzphIyHkSkRh3yEY9JaMuI6g7/+3aDfhvTqWntHTYZz5XQx55VDMEBYvqDfTQL3trxzykcIizwdHaTUa2VLE8GuCRYSQKxKFPa8z6FsvOug5fqz6qw31ASk0uatR/nQeshdk84+8pSUoW2uFcVD/fjlNdWMT+ylHyr35rD0TChcZgxt6crCZPzOJu6UQJrbv/KV56Hn83dv+3oknVq5FWcd2E5Y9kw4Ve/2BHZuCTRFCrkgU9oxijiUY9HtLYbrooBfUlOGxJavgPNwK2fU6GDIM/GN6fASanXY4uQnwfvC/UIJ1B3yQjNGy9vQYe/UJYUsPKgtRts0Lf6QaerZv7eg2NhY/h171tw4HjrYhqmO7HhOHemF/zoJF6/t7ZYMQ8n2gb9DypCwM01C90XbuMCSEkAGMRvY8P+wU9ISQMEZhTwghIkBhTwghIkBhTwghIkBhTwghIkBhTwghIkBhTwghIkBhTwghIkBhTwghIkBhTwghIkBhTwghIkBhTwghIkBhTwghIkBhTwghIkBhTwghIkBhTwghIkBhTwghIkBhz5NCm6plPwkhJDxR2DOK2Rbkms2wmvUU+ISQsERhzzSts6BsWzOiUnP4wJcJ5YQQEi4o7Hl+2AtNKBECv5gCnxASZijsO1DgE0LC1yClUnlGWA4LOp0ODodDWOsPKbQLC2FOvxaNWwqRt8LJDgP9JNUie4kRadcrIB3M1k/50fRhJcqeKIWzo1EjrLZMKKqKkL09EU88kI44uYTf4j/qRPnjBbAd41eBNAvWPqxB03oDTC8IZQLd468gb+pnqMjIRdkZ7p+0s13LAR1MszVQcRckTvngeY2VrXJj7F1LWHmKUO6H1/UKrEsr4OEa5KmR+agJd05WQT40WBLweWD7oxll+4LrhJCBgUb2Z/HDucKMwi2fQpluRtHCft6lI9XDUpoPw0QZml122DbaYN/fiqiJBuRb86AZJNRrp7wT1t+kAfu38HUdH/khHcMOFr/PxtjudfuCtZs/W4Vmpw22rW40tcmhnp0P8wIL8u+biICLlW+0w30sAqopRuSZNcILpZhdVADjDCXaaoL9t23zoDlCCdUIoQohZMCgsO9R18Bffr9KKO893W+M0Mj9cBXPQ85SK0qfL4V1sRH5G4+gTTEdWVldE1w6To66P8+DqbCUr1v0kAX2T9gIfUwKZt/Y/7SXjpOimp1dLCpm7RYvgvE5F1pZkGsykuGzWZDL78+KRSY2og8AikQdkvlXzsGMRHaGcXgLcn8X7H9poRnGeSYU7+ErEEIGEAr78/C3sfSDBNLIqGBBr2ViZhI7H2jYhbKtXSeBPKv3o/GMBGMnpAolgsO7UNilrgfbDjbhDGSQjRKK+uNwNcpqhGVOpRsHv2LPJw+g8q8e1r7A/xrqGthzlALX8wVNOMF1J3oi7v1xyLmN3wdfv+e1CCGXC4V9j6RIXlCAJRnxaN1thanYLZT3VhSGcXPc0XqU2GywhT7WGvhpGek18cGqAn9jzVnXBtxfcCVSRMUE1/vj7HZ9CHDHMPbDFywQ+BE4zZ4kQzCMX7dh9UYP/D+Ig6FgLdaWFcI0SwM5v40QMtBQ2J+lM+j9VVZkL7OfFcK9FTjsDM519/R4s68HkO+fZ7UZWfMsWLWzHq0yNfTzLSh/KR/6fl3EIIRcThT2XXBBv7wj6HOW9jfoT+AbNnqWSFqxiZvr7umx3iXU7Tv5NVphqZ0U8dd8Rwl83IV1T5pgzJqLospGBEZqYfyNTthICBkoKOw7BIPekhHXEfStwpa+24T36ljaR0+HceYlDOH6Zr5P8nEaqIMlQYlGTIu9mFt2eiKHfKSwyPPBUepCI1uKGH5NsIgQMmBQ2PM6g771ooOe48eqv9pQH5BCk7sa5U/nIXtBNv/IW1qCsrVWGAf1I5wPV8D5EXcQ0aPgL8tg4to0F6J8+XQM+rS/k03ncieeWLkWZR19N2HZM+lQsfd2YMcmoQ4hZKCgsGcUcyzBoN9bCtNFB72gpgyPLVkF5+FWyK7XwZBh4B/T4yPQ7LTDyX/xqa+8KHu8ELaPfKzTydBzbWpkqFttQbn3Un83rg4HjrYhqqPvekwc6oX9OQsWrb/UBxZCyHeNvkHLk7LgTEP1Rlu3O1QIISQ80Mie54edgp4QEsYo7AkhRAQo7AkhRAQo7AkhRAQo7AkhRAQo7AkhRAQo7AkhRAQo7AkhRAQo7AkhRAQo7AkhRAQo7AkhRAQo7AkhRAQo7AkhRAQo7AkhRAQo7AkhRAQo7AkhRAQo7AkhRAQo7HlSaFO17CfpNelsFP7DBttL+dAJRYSQKxeFPaOYbUGu2QyrWU+B31ujhmGIsEgIufLR36DlSaE3W5GTGoXmbSXILbxEf3Q8LBiQV5IF9eEyPPCkA2H1HwshIkIje54f9kITSrY1Iyo1B8VshC8TthAFVGPkkEmEVULIgERh34ECnxASvmga5yxSaBcWwpx+LRq3FCJvhZMdBvpJqkX2EiPSrldAOpitn/Kj6cNKlD1RCifXKHeRc/V9ULe5UTZvESo6dqRDfnketDIPVs19BOtag/9E8tRs5N+XhvGjpJDw7QXg+8iGorwyuPkarO8LlsB4y0QohIsP/iYPKv9qQenu9saNKN6YCeWeIhjfTMTvHkjDRKFywOdF9b+sKHjNw68bV9iQGcsvhvDD9YcsWCp1sKzJg+Z4BQwLy4RtHCmSZ+ciOyMFKrlwOsD182g1/rmiABU1wSLuPS75ex5Smisw54UTyHvwLmjGtPfDg4pCC1bt7/zkpdOysYT1dULHe2ef5e5yGJ+0BSsQQs5rsEwmswjLYSEmJgaHDh0S1vojAO8eB7wjpyE9PR3akV449nhZaR9J9bCU5kE3dhCaqh3Ysc+DQydHY2LSTdD9NBq1G51oaPsANT+civRkNVTX1GKDs4F/qXrhYhhvGALPy7kofqctWDbfCuu8KVAM9qN291uoeq8WtU2AUjkYtbYdOMRdd3i8BHk/G4tBn7rg2PEOPEdOYvSEG3DTLT9FdN0GOD/hWroJt92jhqw5AlMN0zG64d9469/vo7bxFJTx8UiYnIKEz+1w1AcwOCISrQ2sjeuVuOqwE5t3uFFbewD7q92o+zIGuru0iD5ZgzWb9/F95IJen1+CfEMChgca4Nq+A+8cqEXDaSXGT0iAJm0qhro3Y98xrm7w9dedHoKb0qdj1JHtcLjYZ/TVcMTGxiBpagJaXn0btVzVKXkoWaRH7Omj2PHmLrxfewgtQ5VIGHoMa7a075sQcj40sj+nzhG+9zUTTC96hfLe0S1ei7wpgKt4HixbO0eo6gXPYVnGtahbfSfMr3AfvZqNoAuQOcaLil+bUMZG3tY/ZUJVtwpzzevAD+pZ2JUt1kHhc8GabYG9s7lOaUvwysMpGLTXinlL7J1nI4nZKFlugJK1l5m3jhUER/bxg9gIvdjI+hZyKTqR7b9ID0WTA4uMRcLZQueZwJyloRdoexjZp1lYHzQY8nEF8k1l8IT8lyWdyc4ucjWQ1azDvXmrWP+Ekf3wAOrX58P0QvBsgvvcMwtWwpgUAc/qTPYZAdpF5cifFsH6O4f1t7NR+Ug5fMd9whoh5Hxozv48/G3ceF4CaWRUsKDXMjEzSQo07EJZSNBzPKv3o/GMBGMnpLaXoOzZLfAiDvoFmbhvoYEtefDyEiHoGd1MDRTwwfnncwQ9k3lrMmRowq4Xt3addqoph5udMEiiJ3a9H571beWb3e45qrFiSw17z4p4TOvHPaiZM7k++FC9emWXoOf4txbC8THrR6IGc4QyXosbtr+2Bz3Hj4r9R9iZlASy4cFOeH2t7CAjRfyMnyP0X4KCnpDeo7DvkRTJCwqwJCMerbutMBUHx7i9F4VhQ9lTtB4lNhtsoY+1BowdxPZwTXywKqemFNa3myBNMmJ2Iov/tRasC0ns+GtY6J08Ak+VUNCDqGHc/LgC+j9v7Lo/21oYxrFN7IAVskf4P62Bt1sgcz77kps2ioLy5uB6X/B94Pq5p4eGWYjXfca9KTkUM4IlvONebBUWOzT5wffimhR+1ftSBbZ9EoB8cjZWrS9HyWIj9ML8PiGkdyjsz9IZ9P4qK7KXhUyJ9FHgsBO2jSxwe3q82fUA0trqF64LtMF/nF/oKhC4cD9OeuHsaV/8o1KYlhF8G7wW0LNWtH4hLF4J/HYULbgXOcU2uD8FVFMyYSpdDet8tVCBEHIhFPZdcEG/vCPoc5b2N+hP4BuW3BJJKzY9X4rSnh7rXUJdJtEI8x1xbIRvh7NJCs39ZuhDBq4nuMYiVUiaJBT0gK8zNAKtW57veX/PVyBkj/yZhZSdYXTF9qFiOw4040g/rns2n+D6MBbqm89qmJEGz1ACjTi4UyjqEz+8W0uxKHsusvJXwd0iQdysHBhpgE9Ir1DYdwgGvSUjriPo+/8t2k14r44FX/R0GGdeKI3UMP6Km6evh22FFcWvuOCP1MD4SOd9/pt2HmBRp8D0eUZWu2eb3AfZOQGrc/9M9k56IVaLeT/u+k0C6axsTI9meVxXzd5BV9KoeKCnDA9RwfrZCjlS7p0Hdbe60plm6GJ7bvtCpCPlXd6Tf/86bPuIOwxLIU8IlhFCzo9uveR1Bn3rRQc9JwD3ERmmpiXhR9pf4LYbVVDEJUGj0UD3CyOM2ekY/dob4AbP6gVLkTNFhobXn8LSt44hUF+NUzfcjimTbkLM52/AUd+GwIdVaIm/FdobJkFv+AkSxqiQeKMG2tvvwy/vmYQW2w58tP8oZFN1SPqRFr9InwSVIh5JbH+aWzJhNC5AuuJVbH6H61vw1sthXwQQe9udmK4ahXE/Zm39IgcP/zweVwfqsaGwCFX87ZGc4Zhi0OK6aCUmjVYg/tZM6K56G85DPdx6+RHrZ9zPoP3xTV36qcvKxa/Z2ZLU58Kzec+Cuwbccesle/3LHbduCmJ1uFvLjjqfOPHq9kOYnvcCnpmvR8LYYHuaW+7DnTcrENHoxLMvVKGjq4SQc6KRPaOYYwkG/d5SmC466AU1ZXhsySo4D7dCdr0OhgwD/5geH4Fmpx3OM2f4Wx3zMlSQNFTC+nz7HSl+VDxvR32Am87Jg54ffPthX2pC0eseNEEJzcxgW/okOdrqPKjjX+dB2WNPYNVOL1oj1dAJ+zPcPB4Rx3fBvoOv1KGtthyW1w5CqmlvKwqth52sDRPKOr74xHGg6G8OHPHLoeb2e3MU2s45n8/6+fscFKxzwxvST90EoLFqHQrOddvoBdR9VIfGwZ3tGbQKNLPRfcFDVvauCSG9QffZ86TQZ6SheqMN4X8z37numyeEhDMa2fPYiFQUQU8IESsKe0IIEQEKe0IIEQEKe0IIEQG6QEsIISJAI3tCCBEBCntCCBEBCntCCBEBCntCCBEBCntCCBEBCntCCBEBCntCCBEBCntCCBEBCntCCBEBCntCCBEBCntCCBEBCntCCBEBCnueFNpUbZc/an1psHYXWFG+3gabzYbyRdoL/c3uK4wUs5+ugG19OfLTBlbPCSFdUdgzitkW5JrNsJr1lzTwpXMsMGfEQXbMDftGBzzHMMD+DGAUhkmERULIgEa/4pgnhd5sRU5qFJq3lSC38NL80XHjMzZkTqhHRZYJZf34Q9sXlgxjgQn6CCfmmMvA/Q1zQgjpCY3seX7YC00o2daMqNQcFLMRvkzY0n/JkEeyp5Zm1H0nQc+RQxWjgHSIsEoIIedAYd/hUge+HLKhwiIhhFxmNI1zFim0CwthTr8WjVsKkbfCyQ4DfaNbvBZ5U7rP/vvh+kMWLJVSJM/ORXZGClRyYUI84EP9GyV47Pnu+5JD9+BjmDtjAhSRnXU9G4qwaUx+D/sA6tdnwPSC8E86Uofs385F2gQ2+m9/eUsTDm4rgyV0X/OtsM1SwFVcjMbbc2CYIGdnJC4U3WMB+PfShIqMXJSFzBOp78qH6Red7yHg86L6X1YUvObh13lSLbKXGLvs39/kRLmxALbgKiHkezJYJpOx/6PDR0xMDA4dOiSs9UcA3j0OeEdOQ3p6OrQjvXDs8bLS3js15IfA519i6FgVhn/rhfONHXDXHsD+ajfqbspHcc5UjPiqFjveqsL7tQ24aqwacTdMxeQhTmx+t0VoRQ2jtRjGm5UY0tpetxYNZ5RQDq7FhurPOvfR4obtLRdq2fb397pQ8yl7eaIR1j8aMSV6CPwf7sBb/34ftUdaIBuTgPikn+DW+GPYur0ObdyuJt+GexJlGBw7FaM//Av+X24BVr7mAPcpxqTeDe0YP2pefgP7uLqMmh0cCuYkQRbyHobEJiNpahomnd6EN9/nWtUgr3Qx9GMH4eguO3a9V4tDXwyFcvwPceyVzR1tEUK+HzSyP6fOEb73NRNML3qF8t7SwbImj0VecITc0aO0PPz+BieWh54xJJpQVqSH4rANWb8q5cs15jIsSVXgiyorcpae64KxsI/jFcgwhV6gVcG4worM2FY2Ws+GZWvo+QJ3EFmGzDg/nEvvQ0EVexE/so9DoGYd7s1b1eXsIniWEjKyH8cOIn/KhKrBhnzW145xvFQPywsmaE46sOiBIrinP4byR6cjYq8VWUvsQiVmpBzy4z74hFVCyPeD5uzPw9/GjeclkEZGBQsuhcoiPN59aqhmP7zcgF6uRApfoINhkgKDjjtR/Pt+3Bk0LhPaWAkL760o7BL0HA/KKtysTTnUt04TyoIaP3qta796oLpDizhJAAfsIUHP8dvh/Ii9WjGWHeAGAV4f329pnBaGkcEqPAp6Qi4LCvseSZG8oABLMuLRutsKU7FbKL805JMzkb24ENZny7D2HxWoWM9G59ydOx3iEcXWA594sLc/511xUfzF5ebDlT2Hd+VRNLF25aPUQgHHj6b6C0U969kIrmUJkucHvygW+jBN5q4hKKDSsafD5ajY1oSAXIPsl2wof9YC40zVJf0eAyGk9yjsz9IZ9P4qK7KX2S842u09KfT5q1D+hBGGm5SQtPlxcM8WbHndgfr2qfoQbYFLt+de+VZ4viAfPK+zgN/Y02MTnPXcEYq7u8mIe7OtsO3zAmM0yMwtwepnjAg9xBBCvh8U9l1wQb+8I+i5ufJLGrfSOfj5tCgEDttgvnMuch4yYVFhKUqf349moUrQCXwTYNXHJCGpP7+loL6Zn0KJGpfW80g6bQwUrN2mBpdQ0Hu+r7mWZWj7hOt3T49VsB8O1uX4j9pRujgHc+9ZhFX7/ZBMyETOfBrfE/J9o7DvEAx6S0ZcR9D3ea78QiYpIGch23asHjUh0zPSWalQd5nGYaNjDzvMKKbD+ID6wr9PZ4QCXWbfD1eg+iggSZwJ88zuwaqGMTOZxXUTPNv3C2W9595ex8b1EkzUZ59/hC6VQx66a78b6yo9/MFTOmJ8sIwQ8r2hWy95nUHfesmCPga6u7SIRgOcwm2MODIck+/QYGzMDfhJfDRU6knQ/iIHD98iw5cnZSyA2+sGUPPvFkz4mRY3TNJj1vQERKsSMUmjheHeXyJrUgs27eRa/BzxuruhvlaJmFg5VDdlQT/xTex490u4Dg7F1LRJ+JH2F7jtRhUUcUnQzDDAmPu/mKI8jfr1S/G7DZ9zveq49bJh96twdPvozrr18pN34I+/FdofJUNv+AkSxqiQeKOGbzvrfiPuS/bhXztYIzN+ixcKH4B+gop/nxqNDvf9QgvFkCY4//wXVB3jmyeEfE9oZM8o5liCQb+3FKbvYkTfwYblxTbU+SKgmqKHIcOA6dGNqFi6Fmfd2Om344mHimD7oAmI1kDP6hoy9Ege1YY6T117JZQ9uw4enwSqaWz7LWMhbZ93qimD6bFS2D9qhex6Hb8vw0wNok56YH8uH6YXPP38pWx+2JeaUPS6B02DVdDM5PrFHrpkKE/VYevb1cF26z2oOxYBpSb4Pg23T4eihY3ul5lgreEbIoR8j+g+e56UhWkaqjfa6LZAQkhYopE9j41WKegJIWGMwp4QQkSAwp4QQkSAwp4QQkSAwp4QQkSAwp4QQkSAwp4QQkSAwp4QQkSAwp4QQkSAwp4QQkSAwp4QQkSAwp4QQkSAwp4QQkSAwp4QQkSAwp4QQkSAwp4QQkSAwp4QQkSAwp4nhTZVy35eOpqHy2CzVcB6v0ooufJIp2XDWm5j/WSP8nxohXJCSPihsGcUsy3INZthNesvWeDLJBHC0hVKOhtLzAbEyZrg3mqDo6ZZ2EAICUf0N2h5UujNVuSkRqF5WwlyC7/LPzreWwbklWRBfbgMDzzp6OcfBz+P+4ux8a54fLw+C6YX2v9KOSEkXNHInueHvdCEkm3NiErNQTEb4cuELZePAqoxcnaGIKxeYsmjuHMYP5oPUtATIgYU9h2uxMD/7siHyDBIWCaEhD+axjmLFNqFhTCnX4vGLYXIW+Fkh4F+mG+FbZYCrj9kwVIZLNItXou8KU2omFOGEw9l4y6NCtLBbEPAB09FESyr3Py+jCtsyIzlXxLCH9IW6+MCC4y3qKEQLjL4mzyo/KsFpbvbe6uDZU0eNMcrYHaoYJqtgYrVrd/rgmKy5qxrE/6qImQtZZ/bSB2yfzsXaRMUkApnFf6jLrzyJwsqaoLr7eSp2ci/Lw3j2VmChHsfpwLwfWRDkbkMbv6/qt70k9Walg3LA6Ht+NG0uxzGJ23BCoSQizZYJpNZhOWwEBMTg0OHDglr/RGAd48D3pHTkJ6eDu1ILxx7vKy0jybfhnsSZWjY/SocQndiUu+GdgwwhG2bHnUE27e74DlyEsNZn2OSpiLhi1fx9kfsHyUiEq0NJzH6eiWuOuzE5h1u1NYewP5qN+q+lEK/uBR5t6gw6FMXHDve4dsYPeEG3HTLTxFdtxHOT/i9QXeXFtGSKCRffxJvPpWLRc+8hM0fR+CHpz/Hl1fHQjXiNLw7N2OHuxYH3quCu74Fxqf/jFnxg9C014Ed+zw49NVwjL8+AZqUGDT8awfaP1k1O5hZ502BYrAftbvfQtV7tahtApTKwajdxNW7UD83BPs5JQ8li/SIPX0UO97chfdrD6FlqBIJQ49hzZZ9wZ0RQi4ajezPqXOE733NBNOLXqG8l845spci8HEF8k1l8AifvHTWMqycn4yImlXIzFsXLIQRxRszodxThDlsxN3xj5RmwdqHNcBeK+YtsXeedSRm47kCA66tb29DGNlH+uBcOhcFVcFq7XSPv4K8qYO69I9jXLQMza8tChnFS5G5jI2ykwNwFc+BZSvrCQvossU6KHwuWLMtsPd06pO2hPUzpcd+liw3QFm3Cnea12HaY6uQrx3C2mb92CrUYeQj5fAd9wlrhJCLRXP25+Fv48bzEkgjo4IFl4Qf7g0rO4Ke41/vxhG2K8nQqLOmV7rLnJnM6jRh18qQAOXUlGN/wxlIoieymA/RUgdXt6A/n7JloUHP8aPikJcdbKSIigmW6PQpUIAdRP58jqBnMm89dz/dDey9sn6mslXvF6182/EzDJAHa/Ao6Am5tCjseyRF8oICLMmIR+tuK0zFbqH8UmiC901hscNn8J9kT3Il2Fj4vKKGcRPpCuifFb4M1fFYC0PMIIAdmOKDVYN8jdglLPaKVAX9nDwse8aKkvIKVPyjgp2hxHe5mBt/DTsknTwCz3kOIuft5zi2ie/nIHhf+he2fRKAfHI2yteXo2SxEfoxFzrkEUL6isL+LJ1B76+yIntZt5HpleCkF86NLDh7fFSiy6HpdKD3/U80wvq3Epju1WF8pASBT92ofHMLKvY2CRVCBHrR7oX6eYad3vjtKFpwL3KKbXB/CqimZMJUuhrW+WqhEULIpUBh3wUX9Ms7gj5n6ZUX9Ce+CQBDI9D6RilKn+/pUQGXULevdHfrETfUz8+fZxlzYHrEAitr85WGb7p8qYvvQ6QKSZOEgh70rZ9+eLeWYlH2XGTlr4K7RYK4WTkw0gCfkEuGwr5DMOgtGXEdQX/5v0XLehUVj9A5lE3vHkQACkyfd+l+tUO7+CiuxWY0OkMPcWoYb1J1mcbZtOMAi2euD0a2tWeb3L3rp3SkvMt2//512PYRt38p5AnBMkLIxaOw53UGfesVE/R1aG5hTxN0eNqUjexFy5CXxsJw9UrYPg5AOtmE1S8VIm8B28Y9zMtQUrYW1vn9/6qU/SPujiMV0p9rbzcP1jWFSL7qi2AFgX99AcqqfJDEZqJwTQksucE+mBZbUVaaDx3rgn/1ixfoZ/AYlpJTjLXlnW1km60w3sjiv8GNTXTnJSGXDIU9o5hjCQb93lKYrpARPeBA0d8cOOKXQz3TAMPNUWjjM9eDskctWLXTi9ZINXQZbBv3uHk8Io7vgn1H6IRL33ifY2Fd5UXbCKHd25MhqSqF+d++br+bxw/7UhOKXvegCUpouP6x+vokOdrqPKjjK1+on+DbrDtYh8bBnW0YtAo0s9F9wUNW1gIh5FKh++x5Uugz0lC90Qa64Y8QEo5oZM9jI1UKekJIGKOwJ4QQEaCwJ4QQEaCwJ4QQEaCwJ4QQEaCwJ4QQEaCwJ4QQEaCwJ4QQEaCwJ4QQEaCwJ4QQEaCwJ4QQEaCwJ4QQEaCwJ4QQEaCwJ4QQEaCwJ4QQEaCwJ4QQEaCwJ4QQEaCw50mhTdV2+cPXYUM6G4X/sMH2Uj50QhEhRHwo7BnFbAtyzWZYzfrwC/xRwzBEWCSEiBf9DVqeFHqzFTmpUWjeVoLcwivlj44TQsilQSN7nh/2QhNKtjUjKjUHxWyELxO2EEJIOKCw70CBTwgJXzSNcxYptAsLYU6/Fo1bCpG3wskOA/2hRuajJtw5WQX50GBJwOeB7Y+PoGxf+0fO9rXAAuMtaiiEiwX+Jg8q/2pB6e72veqw5O95SGmugNmhgmm2BipW9+jHXoyJVcH7eg5ynvMKdQXjslHyrAHKmnW4N+8IzGvyoDleAcPCMqFCkDw1G/n3pWH8KCkkg1nBqQB8H9lQlFcGN1+jN/1jtaZlw/JAaDt+NO0uh/FJW7ACIeSyo5H9WfxwrjCjcMunUKabUbSwP3fpSDG7qADGGUq01dhh22iDbZsHzRFKqEYIVVgd/eJS5GeoITvmgp2rs9WN1kg1DIusyJsiVGsXqUXeHRJULsuCwWBA9qO74QkAqhszoRKqtFPdkcLK/Djw9qpzHqjU84tRZjZAHdmGgzvZvrn97zyINpkCcr5GL/s3JQ/WRaydoU3Y9TrXjh2uo21QKBRCBULIlYBG9ufUOcL3vmaC6cVuo+fzMsJqy0TcYRuyflXaGbhSOQtSH3xcQdoSrH04Bdhrxbwl9s46iWxUvpyNyutW4U7zOpw5I4zsh/vgXDoXBVVCPWZ2UQXuS2yGY7ERRfuEQiQjr2wZdENdKLrHAgc7M7B0H9mzgP7r4zoov3DBmm2BvacjQpqF9U/D98/I+tdxwTqkf5l566BdVI78aRFwFWfBslWow8hHsnd63CesEUIuNxrZn4e/jQ2dIYE0MipY0GtNOMEFaPREzE0KOS/wC0HPZN6azA4nbDS8MiToOTXlcDewvbLXpgpFvJY6uEKCnrPu7QPstQokp2swSCjDlNuRzAbVvv02FvQ9083UQDmIHTz+/ETPQc9kzuzsX5c7k0L6x9237/VxW6WIn2EQzgiCKOgJubJQ2PdIiuQFBViSEY/W3VaYioMz2L1nw+qNHvh/EAdDwVqsLSuEaZamSxhGDZOwnwron7XBZgt9rIVhHNvEDjDxnRHO0rMRu4TFDq9vhaeFjaLVekwWqupYSMvhxa6XXcGCHsRfww5AJ4/As+fcJ3W96x8L+5cq4GgIQD45G+Xry1HCzjL0Y/o+8UUI+W5R2J+lM+j9VVZkL+s28u4lz2ozsuZZsGpnPVplaujnW1D+Uj70obf4nPTCyc2F9/iohPtMSBifDvTQDwds+9kIeiRr/2Yu7Q249QYZAjW7UX44WOOcAj21182F+sfV8dtR9Mt7kVNsg/tTQDUlE6bS1bDOV/NNEEKuDBT2XXBBv7wj6HOW9i/oOxx3Yd2TJhiz5qKosgmBkVoYH9Lx4/UT3wSAoRFofaMUpc/39KjAucfmnVwvV6OJjeWT9akYNGsaJsrOf2GWw+87UoWkG0POHLrpW//88G4txaLsucjKXwV3iwRxs3JgpAE+IVcMCvsOwaC3ZMR1BH3/v0Urh3yksMjzwVFajUa2FDH8GnBpv8l9EAEoMH3eRf6KhsMVqD7Keq/W4eGfTEREiwdbXxe2ncOmnQfYe+P2PQ/nGn9verezf+f7voF0pLxL//3712FbbXAeX54QLCOEXH50Nw6vM+hbLzroOUZY17MQ/7Aa1XVcSxFQTU5DcnQb3C8YsWg9V6aGcUUBMmMlCBz3YJezLrhPNuJOThyPwL+zkPsCcCbkPvvu98m3k95biPI54zEoIGH9t2Duk6HnBD3cjcPer/7xEpimRgEtXriq3Gj8mvXymolIvq4R5dkFcPSifybWP93icuQltMLlCraByIlImxEHaZMd5l9a4eFeQwi57AbLZDKLsBwWYmJicOjQIWGtdxRzClB0dwJa95bC9MRmtAjl/Tcc436SjB/HqaFOTEDC9fEY+e1hvPViEZbbGoQ6x7Bvew2+vTYBsfHxUKu5euyhGIavG3Zh0/oq1B7j6sVAd5cW152swZrNHfdXdhGouxaTZyVBGeHFW0//Fa4vhA284Ouju7w+gLrtDjSMSET82HFImKjm9x3PzkZ87+/ABmcN+wx6179T0clIUY/vaCPhugg0vfcvPLv4L9jH3cxECLki0Miex0a6GWmo3mgD3TBICAlHNGfP8/PfEKWgJ4SEKwp7QggRAQp7QggRAQp7QggRAQp7QggRAQp7QggRAQp7QggRAQp7QggRAQp7QggRAQp7QggRAQp7QggRAQp7QggRAQp7QggRAQp7QggRAQp7QggRAQp7QggRAQp7QggRAQp7nhTaVC37eaUywmqzYe1inbA+MOgWr4XNZmW974UpeShbb0PFM0aohCJCyKVDYc8oZluQazbDatZfwYEf5n4YgQhhkRBy6VHYM03rLCjb1oyo1Bw+8GVCOfkeVRZg7iwDMh8qg1coutSS71+GsrWFvTvTICTMUNjz/LAXmlAiBH4xBX5Yko8ZD4V0iLBGiLhQ2HegwCeEhK9BSqXyjLAcFnQ6HRwOh7DWH1JoFxbCnH4tGrcUIm+Fkx0G+ia71AbDGC9sv8pB6WGhUKB68Dk8d/u1qHllLsyrWyFNmo3cBRlIGSOHZDCrcCoAX/0WlDxeCmfHjrkLtJlQVBUha2nwvXEXP/OmNKHCYEIZX9JOB8uaPGiOV8CwMGSLVIvsJUakXa+AlN+PH00fVqLsidD99IYUybNzkZ2RApVcEizi+ny0Gv9cUYCKmmARp7OPJWh+1IQ7p6jAv6THfZ/9Hnm97rccugfzMXcGG71HCv0K+ODZUATzoUysfVhz9vWYj4XPiNvH79g+Etg+hJf6m5woNxbAFlwlZMCjkf1Z/HCuMKNwy6dQpptRtLDvd+mU7/QgABVS7uh+X4kKmckqDPIfwLa/t7J1HcyP3gftNcDBnTbYNtrgqG+DfIIB5t8bMXZQ8FUXTaqHpTQfhokyNLvs/H7s+1sRNdGAfCs7MAjVLkwK/aJSLLtPC9XgRri2Cn3+sBWycVoYl1thTOzeaQlUi/NhTALqHFx9O1xHAQXbt/lJI9Tne4+97rcaxhUrkXe7GlGBg3Cweny/PmqDTCEH6p3YxNadhwOsrg9uYbvtTTdb1yCv+DEYEmVocgbL7VVetI1SQsG3TUh4oLDvUdfAX35/324G9K+uxkGWK4obs5AslPEmZSEpehD872/FJuF8qrXOjoL/ZaP8wlKUPl+KoocssDewiJygwe3SS5P2ut8YoZH74Sqeh5ylVn4/1sVG5G88goBiOrLmCBUvJC0PxmlyBNiI2HxPDizFQp8fmYt7i13wSeJgeGAuZF26rUKycldIfSssv5qHsv1+SGINmHf3IJzrXZ67394u/daY85AZK4Gvyop7/4cdoFm9YL+MyHmSnSUctmMVW3c2trHaPtQL20vXu4AZeiQp2b/Ju2XIFf4NrEtzMHfeEvwz2DwhYYHC/jz8bdxIUAJpZFSwoNfWYdv7fpb2yfj5FKGI0aQnQzGIjSzt2xDMegeKFlu7TUd4sN/LFURBmRIsuTiZmJnEzk0adqFsa5cdwbN6PxrZ+xs7oXf372femszG9j5Ury5jvezKv7UQjo/Zp5WoQVaX+A7ggL20W30/Kv5RjcYzbN8/mimUdXe+frtD+q2DYRIbgx93onipvc9TbvA2o5X9Y0jjtPj5KKGMc9zH3ikh4YPCvkdSJC8owJKMeLTutsJUzJ3u943tbQ8LHjnUae2TDSyUkuQYdHQXVu8JuUwyUoPMBy0ofKYEZWsqWAjakDflUt7tH4VhQ9lTtB4lNhtsoY+1Bv4LTNJr4vmaFxI1TAKcPAJPlVDQhR91n3FRKwcbdIdohPdNYTHUPh8fzNIo1oMeh/a97Xc8oiLZIeUTD9g4ve8Ol+Nf2xsRkGuQ/Tcbyp+1wDhT1eepO0KudBT2Z+kMen+VFdnL+jFa5FTa4D7Ook+tD84t3z4T6sgAPDtXwytkvXRmPspXsnBhI37l0AD8dbuw5U1urrlfezyvwGFncJ66pwc/d/1dCSBwnrcT+OaEsNSz3va77Xw7OS/uLqwHcG+2FbZ9XmAMO/jmlmD1M0aohRqEhAMK+y64oF/eEfQ5/ZkW6OBCuauJjdyTYUgDMmdMhFS4MBvMeinm3KGF/LQXtt9mYm62CabFRfyc8f4WvkIvsFH0DGGxnTQ40u10At8EAImkFZva56q7P7i5615oPsEaGjoW6pCpqU5SxF/DxsOBRhzcJRTxFFCx93+WWXFQsRF9c9OHED6Qbnrb72A96ZikrtdH+sh/1I7SxTmYe88irOKuJ0zIRM58Gt+T8EFh3yEY9JaMuI6g5+6XuRjeDdXwsnbVM/KgVUu6XJgFiybFCPZ0sgn1IbcrQpqJ1MQLh0zdF1zv5Iif1HX8qZ43DXHCctAmvFfH0jB6OowzLy68KnYdYAc/OVLuPXvUK51phi6WZX1dNV7vkt7s/c/MZK8KpYbp58mIQBM82/f3nPW97vcmOD3skKxg9eb3Zize7QAplUMe2rzfjXWV3BQc2zRifLCMkDBA99nzOoO+9RIFfZAU9xWtxux4FoJshFq9dC4KQua7DUvXInuSFP7DLuza34i2q1VIYWcAaGmDQsHODf4wB5ZK7p+nh3vQx7GyP2UiThJA075KVB9tgyx+OqaPa0PzKQUUoffZJ7K6y4N1fQd2YVdd8N3JxiRDnRCAM6v7vfrnIoV+cSlMU1h0t3jhqnKj8WvWDrffiXJIfC5YcyywCx9e8D57wOeTQnbSjcq9XrBeYmKqDnHs7IO7e6bzs+7hPfa23/wtmiZoWLc6Pkt2KFEmsgNqU3nwjhyu2nwr1rIzisBRJ7bsa0X8KD/MThVW/Zqdybmq4f6Mu1unvX9NsOex/YceiAkZwAbLZDKLsBwWYmJicOjQIWGtdxRzClB0dwJa97Ige2Izej2LckEBHLxGg18kKyA5+hYKnnd1abt2TwMib7wB14+LR0JiAhKUg1Bne4qNVX+CKWOAht2vwsG/lZtw2z1qyD5x4tXtwnv7ch+2H4nE5B+PhyqWvfb6BIz+5gP8/ckNGJqqRfTJGqzZvC9Y9xir6/kW142PRWycGmpuX6z+ddKv8cm/N2FDVS2OBWteQAB12+04dFUCYlhb6olqvp2YEV+jwbURzy4qhiNk3ism9W5oxzThjey1+CR1OvQ3J7P6MZB/y0b0W6zI+6MjZJqsh/fY234H6uDYzj7L6+MRG5MAtZqrF4/RP/DBvX0DnB8GP/XAO4dw1Y0pSIoPbv/hsWq8+tbnSNL8GOMnCO2Pvw4Rx9/Hv1bk4y/vsjMLQsIEjex5bMSakYbqjTa63e6y6WFkTwi5ZGjOnueHXeRBL5+QjORJ53lM6DrrfsmlqfhvrLZ+TYdbQr4LNLInPOMKGzJjhZWefFyBDFMZznxH/7VoHi2HZUYEXH/IgqVSKCSEXDIU9uSyMS77K+I+c6FpVArSuG/BflQB03f4++wJETOaxiGXzYlTMiTPNECfFIXWj2wofJyCnpDvCo3sCSFEBGhkTwghIkBhTwghIkBhTwghIhB2c/aEEELORiN7QggRAQp7QggRAQp7QggRAQp7QggRAQp7QggRAQp7QggRAQp7QggRAQp7QggRgTANeym0qVr2M7xxv4PeZrPCKKwTQsi5hGXYK2ZbkGs2w2rWh33gE0JIb4Rl2Dets6BsWzOiUnMo8M8j+f7fo2xtIZ0ZECICYTqN44e90ISSkMCXCVtIJ/l146GQDhHWCCHhLIwv0HYN/GIKfEKIiIngt15KoV1YBHO6Eo1bCmFe4USrsKVP5lthm6WA6w/zYE+wwHiLmo2KWfmpAHxHq/HPFQWoqAlWBXSwrMmD5ngFzA4VTLM1ULG69esNyH0BOMP6lDw7F9kZKVDJJcGX9NhOkDRpNnIXZCBljBySwazA3wT3Jiu8KctgiK1HhcGEMq5i2hK88nAKPmP7MbH9hNItXou8KU3BukK9sw5+H1fAsJBvCRipQ/Zv5yJtggJSoYuBliYc3FYGy/NOdiglhAwkg2UymUVYDlMBePc44B05Denp6dCO9MKxx8tK+2jybbgnUYbPB0/FL6aNxifVb6HqvVo0nFZi/IQEaFIScMzuQB3fcAx0d2kRLYlC8vUn8eZTuVj0zEvY/A63TQp9fgnyDQkYHmiAa/sOvHMgpJ20qRjq3ox9x7i6TKIRRUvnIHnEaTS4HNixz4ND/tG48VYDrh82GIMH+1CzhtXn6sbq8J/a6+D/cI2wr04xqXdDO8YfrHtmCH54+nN8eXUsVCNa4N74Fly1tajdvw+uDxv4fVr/aMSU6CGsrR1469/vo/ZIC2RjEhCf9BPcGn8M9u11ff8MCSGXTRhP44Tyw7nCjMItn0KZbsby+1VCeV+xEbm6GSX/OxfmwlKUPl+KokfmIn9LI87INch6MFmoJxgZgbrnFmHd/pBxcFoe5mmjEGCjaPM9ObAUd7Zzb7ELPkkcDA/cJ1xUVsH44M8RH+GD68/zkLPUyte1Ls3BvMJqNAsj7j47bMcq1o7z02/Yig/1bJlrt3S9i62zff7KgLihbJ/F92LuI0XBbcUW5NxjRsXHAcinzEXuFL4lQsgAIZKwD/K3BXAGEkgjo4SSvmvaXQZ7tzkMzwo7PG2AImaaENKCljq4qoRlQeatyZCxgK1evRIeoaydf2shHB8DkkQN5nAF0p9jcmwEAjVbUbi16079O4tRfVhYuZTGZUIbK+lxn+ydouyfbnbolEN9q1YoI4QMBCIJezYiX1CAJRnx8O+2wlTsFsr7yg9vjVdYDvUZ/CfZk1yJlGBBkK8Ru4TFdlHD2HD85BF49vR0qcSPus+4gJVDMYM93axA1CCg+bCjhzlyPwKnhcVLKS6Kn8tvPlzZwz6ZSi+a2JN8lDq4TggZEEQQ9lzQLw8GfZUVOcvsPYdYb30rPPfkZCsbs4c4Hbi4fQna2pqFJUII6Z8wD/tg0Fsy4oJBv9TevztxOkgRNb6Hr2iNS4IqEgj4juBC5wzNJwLA0LFQ38yG7GeRIv4a1n6gEQd3stUv/GhlJwDKcTODm7tQ4Vy3yMuv6T7FIrTbG/XN/GcUNS6NvaoHaSoo2FNTAze/TwgZKMI47DuDvvWSBH1QXIoRyV1SUIrMX2qhHBTAQdcmoezcKnYdYP2QI+Xeeeg+ESKdaYYulmV9XTX4lva54G0BJGo9shP5Kh3kd2VjerSw0q7exx8c5OM0XdtONELL2u2ZMGXU7nAFqo9y1w1mwjyze9yrYbwzmb3jJni293cqjBByOYTpffZdgz6bBf1FT6fw99mr4POxeBzshWMbF9oRUE1OQ3K0hL+7Jn9hmXDRtfM++4771jtIoX+8BKapUUCLF64qNxq/BmTx0zF9ohwSnwvWbEvHRWDV/cUoviseEQEfPM5dqGPhz9eN9cHri0NcdMh99tydNH8sRmZCBAINblTu9aItMh7TtWPR9jmgiBbus+frsp7ML8baWfEIHHViy75WxI/yw7yMbeVuvVyeiThJAL4Du7Crjh0mr1YieYqGncEEUL8+H6YXul9eJoRcycLyPnvFnAIU3Z2A1r2lMD2xGSwfLx5/n/1QfPCXpdgZ+RPoZtyEGxLjoby6Bd7da1CwaE3I3TXCffYna7BmM38HfIgA6rbbceiqBMSMj4V6ohoJ17PlEV+jwbURzy4qhiPkyNTy7hvY/804qONiEZ8YrDv69CG8+exiNEy8G2p5yH327J3u2+lF5I03YLwqBgmJCUgY/TU+ePkpbBii67zPnq/LevLOYVx1YwqS4lm96+Pxw2PVeLXyA+DYPmx2t2BUbAKun6CGmmsnPhpXfeGBY1URLGsp6AkZaMJ2ZK/PSEP1RlvXC6YXo+MbtFmwVAplhBAyQITpnL0f9ksZ9IQQMsCJ5D57QggRNwp7QggRAQp7QggRARH8imNCCCE0sieEEBGgsCeEEBGgsCeEEBGgsCeEEBGgsCeEEBGgsCeEEBGgsCeEEBGgsCeEEBGgsCeEEBGgsCeEEBGgsCeEEBGgsCeEEBEYIGEvhTZVy35eOpqHy2CzVcB6v0oo6Q81Mh8vwdr1NtaWjbUlFBNCyBVmQIS9YrYFuWYzrGb9JQt8mSRCWOo/jTkP86ayg0W9A7atbhy56L9qTggh340B8iuOpdCbrchJjULzthKYCu24/LmqRX55PrSDXSj6bwsc3+unaEBeaRbUh8pgfNIhlH3/ku9fBtN/RMCZZUaZUEYIuTINkGkcP+yFJpRsa0ZUas4lHeH33xjIZezpuBfbggXfIwXGjpGzsxNh9TKRjxkPhXSIsEYIuZINoAu0Zwc+l7WXzzAMucxhSwghvTUA/1KVFNqFRTCnK9G4pRDmFU60Clv6ZL4VtlkKuP6QBUtlsEi3eC3ypjShYk4ZTjyUjbs0KkgHsw0BHzwVRbCscvPTR8YVNmTG8i8JUY8Kgwl17W3kVUL16znQjGHnIB9XwLCQm+iQQ/fgY5g7YwIUkcKRwu+Fa50Vltc8wXVGOi0blgfSMH6UFBJu/6f8aNpdDuOTtnPs28/exxz2PlKx5O95SGmugNmhgmm2Biq2+/r1BpgOWrD2YQ2a2HLuC0DoP3rH+2b9D52OkadmI/++0H4E4PvIhqJNKuSzts46u2LvM8NUhnnFG5E5ai+K7rGg6ySTEVZbJhRVRchaKmyZX4yNs5TYW1yMxttzYJggB1pcna9NzET+wjuRws5k+D6wfwtv1T9hfbICnZ8YIeRCBuCtl344V+ShcEsjlOlmFC7UXuIRvhTJyy34L1Uzdr1u4y+8NrGQVs/OR/7twRruN1n5Rjd83MpxN1vm1ivh5rdy5NCa74Tk7QJkGQxC0DPzn8DDt0+EzOeGnXsN13aECpr7WdtpwSqYkgfrIgPUQ5uC+99oh+toGxQKBb85dN+Bw05h35vgrA+J70gt8u6QoHJZFgxs/yYW7n2lZgfDlWbWj8g2HNzJ7YM9dh5Em0wBeb0Tm9i683CA1fTBzfeBPd5040w/hw6qOblIPlSGudzn1RH07OCw3AhtNDr64DgUAdUMIwqKZl8BU3mEDBwDMOw57YH/KR/4BfePFcovBQVUsCF/wSJYny9FafEimP7GjeilmHjLbL6Gaz0rf74+GPYt9Xj+L9x6BVz8Vo4cER8VY9G64JlAh28b4X7RjKxfWTrbXu1GgNVP1un5Ktpbk1kP2Ej9RROKuDrPs1H/r+Zi7u//yW8P3Xdbo5Mtc+urYD/Mbw4aGYG65xZh3f5+XsZmB5y8WXGQ+Fyw/u9cmAu5fbBHoRnG7AI4Dtuxiq07G9tYZR/q+T6wx/rOT6BvpIjybUJesSP4mfJUMP7KgDh4YXussw9FD82Dda8fksR05EwSqhJCLmiAhn2Qvy2AM5BAGslO/S8ZP9wbVsITMkL1r3fjCBvESoZG9XI06Ufd3h6C78UCPB4yXcPxv1bP4ozFXVTwfn+vj5uUkiJ+hgFRfEmQ73hnDF5QSx1cVcJyP+j0KeyA44PzzxbYv6fbnho/eq3rgXFcJrSxEgQ8dpTWCGU8P+w7PeynAmM1QhEh5IIGaNhLkbxgOZZkxMO/24rc4s4JlIvXBO+bwmKHz+A/yZ7kSqQECy6gGWzQ3QMpVDNnI2+pFdbSclT8owIV6zPZ6LWT96UKOBrYWH9yNlatL0fJYiP03Lx/X/gasUtY7I/4a9j+Th6B5yIOGH3jR1N9t6NKXBQ/PSdJMvJfWOvyyA1eL1AodXxVQsiFDcCwDwa9JSMO/iorcpbZ+3eB9jsVQOCsEbEaxmdWoyT3PugSpJCcbIR75xZs+ZeLHV5C+O0o+uW9yCm2wf0poJqSCVPpaljnq4UKvXA60HWU3B+BS9BGX3wrPHfjOxCcq+/psenfdUItQsiFDLCw7wz6Vi7ol16JQX8OaVnQT5DAv9eKOVlG5DxkhqW4FKXrGsHNfHflh3drKRZlz0VW/iq4WySIm5UD4yW4Iim/RisstZMGR/IhTnwTACJVSLqYOfHIKMQLix3SVAheZu6FL1r5f1vZt03CdYmzH6u2chNghJALA/4/6JdJbahKE90AAAAASUVORK5CYII=;imageBorder=default;" parent="1" vertex="1">
          <mxGeometry x="160" y="1480" width="379" height="517" as="geometry" />
        </mxCell>
        <mxCell id="nvwnlEwFlLKaPRoTBn40-61" value="&lt;span&gt;&lt;font style=&quot;font-size: 16px;&quot;&gt;SCREAMING ARCHITECTURE&lt;/font&gt;&lt;/span&gt;" style="text;html=1;strokeColor=none;fillColor=none;align=left;verticalAlign=middle;whiteSpace=wrap;rounded=0;shadow=1;fontFamily=Lucida Console;fontStyle=1" parent="1" vertex="1">
          <mxGeometry x="160" y="1440" width="400" height="40" as="geometry" />
        </mxCell>
        <mxCell id="nvwnlEwFlLKaPRoTBn40-62" value="" style="shape=image;verticalLabelPosition=bottom;labelBackgroundColor=default;verticalAlign=top;aspect=fixed;imageAspect=0;image=data:image/png,iVBORw0KGgoAAAANSUhEUgAAAYAAAAEgCAYAAAC926RRAAAAAXNSR0IArs4c6QAAAARnQU1BAACxjwv8YQUAAAAJcEhZcwAAFiUAABYlAUlSJPAAAABhaVRYdFNuaXBNZXRhZGF0YQAAAAAAeyJjbGlwUG9pbnRzIjpbeyJ4IjowLCJ5IjowfSx7IngiOjM4NCwieSI6MH0seyJ4IjozODQsInkiOjI4OH0seyJ4IjowLCJ5IjoyODh9XX0FGHU1AABF60lEQVR4Xu3dC1hU1doH8L/HBpUhHUQCTeTi5QCZ4wVKyBI8QlKohzwpWtgXHAsqxw/FG14ib3ghPaEGauiXVqLl4YgYhSmQCqaYoB6GVBDCECQElJuM6Lf2BZgBVEBUhnl/zzPsvddes/bew/O871pr74FOpqamd42MjFBUVARCCCG64y/ikhBCiI6hBEAIITqKEgAhhOgoSgCEEKKjKAEQQoiOogRACCE6ihIAIYToKEoAhBCioygBEEKIjqIEQAghOooSACGE6ChKAIQQoqMoARBCiI56MgnA2g52RuJ6c1k7wclaXCeEEPLQnsCfg3bFx18rYH8nBeH/G4SY5hzWejrWBk2GbXkCVvmEIEksvj8beCxQ4I0RZjDsJpSoipWIWT8XEWe4LR98dsADpidD8dk1d/i9ZgXDzuVI+XQKguK5/YZw+iAQXqMGwKS7hCvgGoAyOgRzd6QJ24QQosWewAggDiFrYpAptYPvv4Lg/qCRQG3w76TE3nXNDf5STA5ZBZ9RpqjOiEPMgRjEJCpxXc8UZjKxSi2LKZg17BIivN3h7l4b/G3gs3E7Al6zQU/VJSRw72evhIvVMDAx5N9GCCHa7on9QxjpEF8Ef+IOq7L7jATUg//H87Az466440F8EBrjAaucGEz5MBzlYimkhqxfX4xivkAYAfS/zdp+ey521lUC7OZGIGi0CYp/CYXv8rj69xNCSAfyxG4Cl58Nh2JhFLIM7jESsPbAikWtCf6cAtzkonYfW3gNkQpFnPLa4K8mLxP7NMqc4D7MBChKwmcU/AkhHdiTfQooI6LpJMCC/8pFPhiq15rgz4nBVweUKP+LFdxX7cGeiHVQTLRjvf/Gyv/MahDk+6Nnd0D1hxIpYgkhhHRET/4x0Nok0FVMAgPdEcSCvxxpiPh4biuCv0D51VxM8Q7CzmNZKDOwgeuMIOz6MhCuagMC3u1qcUVTtYr6/oSQju3JJwAOlwSWiElggy/suOC/chGiMsT9rVWUgr2rFfCZ4oWQ+AKojBzhM9tJ3HkvN3FLBUj7DmFJiBBCOq72kQA4fBIIR9SBKIQ/dPA3hKHGPYViJISfQj5b0+vxjFB0TweRpGS9f5OX4DPDRiwjhJCO54k9BfRo+SB0vyukv53Cqcwytq0HsxHOkPepRto2byzaz03v1H4PIARTlifw76ojdUVQuAJ2hkB5TgqOn81HNWvD1FoOk4Jd8FvdoD4hhGih9jMCaFOZSL9SjZ5/dYL7eHf2coVtt1zEfR4kBv8HKI9D0P+GICa9AOhjB1exDXmvamQqM8VKhBCi3TroCIAQQsiDdNARACGEkAehBEAIITqKEgAhhOgoSgCEEKKjKAEQQoiOogRACCE6ihIAIYToKEoAhBCio+q+CPZb9xFi0eP1D/NqfJejJ24RQgh5XGgEQAghOooSACGE6ChKAIQQoqMoARBCiI6iBEAIITqKEgAhhOgoSgCEEKKjKAEQQoiO0tIEYAy/N8fCQtzqKPw3hUGVFIyt4jb6euJUwpdQHZgNf7Ho8TDG2u1fQHU0FNGeYhEhpMPRygQwUjETa/09cXStW4dLAhr66KOruPp4GUNGX84mpMPTygRwInQjlh6rgGzUpI6dBE5ux/NO70Ayfj02iEVtbeqCJfg9bhm2duqETmIZkI733v4nJC8rMCFSLCKEdDhaOgVUiA3zlutGEnjETPv2gamBRNwihOgSLb4J3DgJWNZ3YQkhhDxAB/hroMbwWzEfa8fIkH8kEq6Lf8JlcU/LGGOqwguB42xhLRN7xNUVyDiyDxOWqbW5KBiq12WID12KqEEzETjKnPWgWXmNCiVX0rFj83rMOyZUBdwQF+cJ56JESDZXIPrD0XDuq4+undmuslKkHovGZLW2uZvAa4eXYIfjQrzHl6i9f+p2vqTW0Dd9se0tOayNxPa442clQfHOduxmmxYunvjMezTG1B6P25+TgqULwhF2hW17zkehwhYytqohRzhW43MRcMfdyo5ro37cojzE7tyI6f8uFCpx6j6n1exz8sUnY/rAkPs111Qg+2Qs3pwTjVShJiHkCdHiEUCtQoQtXoN5R0pgMsYTcSvGwlLc0yKe3gj1lMOihgWzH5Kx+4c0ZFTrw3qcJ6IX2KrNjwsMR80Wks45rm4yYi9WoKu5HP6B8zHbTKxUq7Mx4gLd4IBsxB5i9Y+ks7UeGMq1vUjeqO0HcQtchaP+DhgqUyHjpHD83SfzUGUgg6lQA1sC3PBa7/r9sTkqyKwcsHa1N5y5Klln68qBUpzgr5m9EjO5vU1yY0GdO+4wteNGpbGgb2SOqQHLEPeWsViznuXEBQgdBZw4wtVnn2mlPiwcJuHbT2zFGoSQJ6UDJACOkATmHxaSABewW47r7e/C8+OXsh5/OKYvW4/nl6UgHxJYD38FFhpRWh9DB5Vg6dsK2M/h6oZjgrcCk48U4q7MFv4zHdBJvX5fW1ieWA/jqWtYj5/VZ+c60DsaJypZ2+MmYY1G5Qd43R9b3J9F15J0zFM7/vQ5S2E2qf5mcUlmChTq5/d2OKKuAV2tbPFuX1aB9cIVrDy+SIW7KIdy+Ra8w7UTnig00NAL3lg7rg9/3Ple9e1O/mghjBcm8snS2dML74rVBSzY98jGfJ+FGp9pNttjMXwcpgqVCCFPSAdJAIKSaq43K0FXgx5CQUtEbsTLi3/ig1OdY5egLGNLWQ94CCV1sk8ewAZuKkVN7OIUpN4GTC3YSEIs41Vewu5laeKG6Mo+fH66FHfZ6GDoNDR7FOA/biDr5ZcidvOaRsevF4spH2wUpnrqpCH5SgVbSmHKeuQt5TzBFtadgdRD27EhVyysdWw7tp9nbRsNxNQ3xTJR9okdmvWPpUBZxJZdJOJohRDypHSQBGCMqUtnY4tbH5SejITrkmSxvGWGvj4JOzctw7ndoSg8/AVuHvWEMze/30gFLivTxXV1pSiuZIuGCaOoEJoz+ILdpeXspz56t+ARJm7Ov1NlIVIPigX3Yj0anyydj1NfBSM3jl1LwpdYO1xf3NlyQ2VS9rMQl4+rzfOr2XC1hP1k19Jf2Bawz+lCw/rJyOeSqoEMNkIBIeQJ6QAJQAj+W8f1wa1fI/GKfywu3xV3NZsx/P8VilOLJmDqYGN0rSlHRmoKog6lIIMLVk2pEZdNuaVCvrjKq6nWHFk0UHVTXGku1l6xuNoUi7fm4/dt3gh0GQiLbtx0UDqijiQjKosbARBCiEDLE0B98K9iwf+Fma0J/kzf8fB+oQdwJRkTnPww8O2FeJmf476Eq2IVTVxPt/ENT7wwAJbciOF6Hv8kTh0jlmDEVXXLLIzRiY0arl4QC5qhpJr9MHgWzuOE7caMEehui96st7574Qw8M2khnvdbz8/XJ3Od9FZKLeFGK8awfKmJ62b8e3PPE5XiMj3aQ4jW0OIEoBn87T9qZfDnOBjz89El13IQK5TwLGbYwaHJKSDAergnpnI3U+sYY9kMOSw7qZB6+jCgfi4GAzHtQ3NxQzRqJqY+JwGKsvGfH+9qVL+fsOOXUIkecH7HG25imSY5LLhbINw00XG1dvtOwhs295oCksHiH+LqPcRHX+JHMUNdvOHf8CmnUd7wHszaZtcS9YNYRghp97Q0ATQO/vebYnmgb5XIqGRhcPgEXNw0EzuX+mJvWAjOvWWMkiangFQo6SbHzu3BiGZ1dy6diaP7grGQBfSqnCR8vLFQM6CXqWDhuQQXw4S2d34ajMJgO1igAvGRu7CjBYkre9sWfHy6HF3NRyM6LhhxK7jjs/PdFIzcfdwfjfsJ8Tkq3DWwxcI987GXO94Kduyv3GBR0XgKKEqcu3d4cx6+ZNdx6l/ewo6GToZDcTAPVTJbrNkVilOf1h+3MHg0rJGHHWvWY4dYnRDS/mllAhjpP1MM/vvg8rDBnxcNr83JyCiRwGK4HaaOc4Bb71LsWBkLpVhDkwpnvo5AWKYUzi4OrL4dRhqpkJEciynTtuP7hgG96BRctqehylxoe6pDH1aWg90hS/Hq1w2SxQMVYsPMNVD8kIN8lgidx3DHd4DHYBlKMnP4L1cFr4zE7swKdO1tCw/+eMbIj4nA+hyhBXXZrG6YktXta8tfh7X03vcJYlcuxORtKVBW6GOog3hcuQxVF1OwdPFCvFf3BThCiDbQ0m8CG8N/hgPitz2Bb5PWfcPVD64P/ENp9/4mLyGEPGlaOgXEesFPIvgTQkgHouVPARFCCGktSgCEEKKjKAEQQoiO6gB/DpoQQkhr0AiAEEJ0FCUAQgjRUZQACCFER1ECIIQQHUUJgBBCdBQlAEII0VGUAAghREdRAiCEEB1FCYAQQnQUJQBCCNFRlAAIIURHUQIghBAdpaUJwBh+b46Fhbj1qPlv/BzVSWGI8+wklrRXxli7/QuojoYimp1rez9bQsiTpZUJYKRiJtb6e+LoWrfHlgS0gzFk9IdVCSHNpJUJ4EToRiw9VgHZqEmUBDSk4723/wnJywpMiLzbwn82TwjRNVo6BVSIDfOWUxIghJCHoMU3gRsnAUua9CaEkGbT4gTAEZLAvCMlfBKIWz4WluKeVrEei53bQ1F49EuoktjraBjOBU9A105NZ5ahb/ri1H/CcLOu/hco/M8y7HzDWPMG7KJgtp+7iSzH2k0h9e1/vwyhLlxdOdZsVCs/HIK4D+Xim2uZw2/JMvwe94VQh3vFNa7nvymM7QvGVnbOwjl44xyrW7jJjT/fc9/Xv79w32wstOYrEUJ0kJYnAE4hwhav4ZOAyRhPxK1oZRLo64a49V6Yaq2Pqotp2P1DMnafLITMYRICB+s3eqLGjQX1o/4OGCpTIeMkq8vqR6UVAkbmmBqwDD++1SAJMJYTfeDXuxTxh4S6VTIW1Od648tNvpj9VxWSWfnuI5eQ39kYzm/5IPp18Y2cRb74zM0c3YouIoo7N66eHlfPlyUWsc79PPMKDilYslCm8Ocam8VGTr3lWLbMF2Oazm+EkA6uAyQAjpAE5h8WkkD0AluxvPn8F0yAMxfMD26Emfd6TF8WjulzlsLM9ycoG95NfcEba8f1QdeSdMx7WwH7Oawuqz/5o4UwXpgI5S19OHt64V2NwKoPC72LmDxpOSZzdf0CsPTXCtw1sMXUwSXYsSwQE7hjLl6Ol/fnsPo9MGy0g/BWTk0JTny9Hs9MXcO/n6/3bQ6qWLvDRrmJle5N1leGM+FL8bx4rhPeDkfUVbajry3+91V6ZJQQXdRBEoCgpFrFfkrQ1aCHUNBsbnAbpA8UpWP9yjSxTJSxC7vPl2s8UeM8wRbWnYHUQ9ux4YpYWOvYduzg6hsNhOc/NMNqdlokYsV1zoa0PBbAwUYcKXj/eP0Rsr/NQzZbmpqYCwWc1WvwyuY0jfPI3pzN15MZ9RYK7udKGt77mo1Q6qQhKrOULdnnZSSUEEJ0SwdJAMaYunQ2trj1QenJSLguSRbLm6s3ehuwQJyfgx1iyf0MlUnZz0JcPq4eUOttuFrCfuqjd39hW1CByxca1L9ZLSSAWxXCdq0rQjn0WFKqw033eCE6LBjn9oXh5uEvcPPoaDR3Cr/kWg6fLNTtLi1nP9l50iNUhOikDpAAhOC/dVwf3Po1Eq/4x+JyKx+AbxSI2w05tn4VjLgPx8KtP0s+lYVITk5B1MFLyBdrEEJIS2l5AqgP/lUs+L8ws7XBvwJVNYCs9wA4iyXqZF0kGnPkqSVcz9kYli8ZCwUN+PeWsZ+luJwqbD80z3HwsJKghF3joFcVeP7tpXBdHI7pXxUKIwVCCGkFLU4AmsHf/qPW9/yBwzjDzeX3tsXCtzSDuoXLTEx9TvPvK8RHX+KnU4a6eMO/r1BWZ5Q33h0sRaeibPznx1afkCYLGbiUUnLtNLLVmnTzHUBfgCOEtJqWJoDGwb/h/HbLFOK9/ekogT6cP1yGi5tmYudSX+zdFIxTS21x648GU0Mnw6E4mIcqmS3WfhWKU5/61tUvDB4Nm0552LFmA3a0UfzHEWH+3mLMYpwUjxX9VRii5Xo0BUQIaTWtTAAj/WeKwX8fXB46+Isi18A+JBmp11igHW6HqeMc4GYFJEeGYzsraxjLY1cuxORtKcio0MdQBwe+vodcxj/Rs3TxQrx3rA3/Fg+XcL5Ox+XqHnXHcuicjqVzU1nSIoSQ1ulkamp618jICL91HyEWPV7/MK/Gdzkt/ROWxvCf4YD4bdFoq2l2QgjRNVo6BVSIDRT8CSHkoWj5U0CEEEJaixIAIYToKEoAhBCioygBEEKIjqIEQAghOooSACGE6ChKAIQQoqMoARBCiI6iBEAIITqKEgAhhOgoSgCEEKKjKAEQQoiOogRACCE6ihIAIYToKEoAhBCioygBEEKIjtLSBGAMvzfHtuk/RH83OBSqpC9wboGtWNIacqzZGIKbR79kbX3J2uoklhNCSPujlQlgpGIm1vp74uhatzZLArKW/lfKJry71gf+I4xRlZOG3UcuQXmzzf4rMCGEtDnt/Z/Aa5dg2Sh9lBzbh5fntdE/hn8oYxH3vRecn0rH/FfXYP1jjf0TsHefGxyyo2E2J1Yse/ymLliCtWMkiHVdivfEMkJI+6WlU0CF2DBvOZYeq4Bs1KQ2HQm0Xi8YPs0WRezchILHqBdseuujaxdx8wkx7dsHpgYScYsQ0t5p8U3gxknA8olOubMA3FlcJYQQLaClU0DqjOG3Yj7WjpEh/0gkXBf/hMvinhZZFAzV6zLEh/rBNVIo8t8UhrXDS7BjSjRK5k/Cu3JjyLggX12B1JideDMkmZ962rr7S7xrzr9FTR52vBQI5cbPhTbmpcHCfyyce7Meck4iJFO3szrm8Fvig4Uv90Hv2p5zWSHi9++C6+Y0YZuxeMMX306Xw9pITDI1Fcg/GQuzOdH3OHYFu44P8GrkOPzwoyfGXE/EhGPGCH3DFhbdgIyD7+D5zPkoVNgin60PWQmoz1jVXbfjQo2pnKFv+mLbW+rnoUJJVhIUsaxt1pZMqFaPXafetO0I//r/4N1LiXmuaxqMjrxxLmk0TH+NhPFH4tRV4CpUuxsiYfM+5LtNwlQrffaZpNe/d5Qnoj8cDee+4jmw30XG6UTMmxOJJzf5RYh26gCPgRYibPEazDtSApMxnohbMRaW4p62IYXDWh/49S5F/KFk/uZuPuvtD33DB7veFWokJ7LyH7hypugSW+e2U5B8tzasSuEW4IhuiREY6PiOGPyZRb74zM0c3YouIop7D9e2njGc3/JFnKdQBa/PxtEABwzVLxGOz9qNvwKYmvTid6sfm7/5zB87CbFZd+uDusFQbB2nh6jVAZCw4z/PAn5LubEEedSfnYdMhYyT3DHY62QeqgxkMM06y2/H5qhYzVKc4M+BvRIzNTNLC9h4ToJD7j7Yc59XXfBnCWOFG9x6159DLPssrB3csPdLz3YwDUiIdukACYAjJIH5h4UkEP1Qj3I21IMFliRM+cdyTF4WjumLl+Plry+hChKMdBKi9I5wVr7sD5RwG2V/4J3l3PY+7OD3cnoAmfvwcqgwYqhTU4ITX6/HM1PX1Lf9bQ5rWx/DRrnxVfxcBsKU69F/uRATuTrLNsJ1qh/sVxzm96sfu6pIyda57V3YcJLfLTACzoQvx7xDhWJBC7EktPX1PuhawnribytgP4c7BnvNWQqzSevZsWKhYNvxRVwCKIeSPwf2Ck9sZfzXh+n1JLgs/AmpYglgi62s52/duRC7FyvwgngOE95einmny9F1oCNCx4lVCSHN0kESgKCkmgtAEnQ1YAG3zVQgOWYHYtUiWfa2i8ioYSvdZM3sdVZA+WuiuK5m9Rq8sjlNI0hmb87mk4TMqDe/nVFazn6yhOAwAUPV7nGkZuSIa83AklL8QXG9FfzduCRUitjNrCfOetyPQ3bmD5rJ8oW/wdmcJbmMZEw/pj6wKMSGE9ksAfaA5ZOZxSREa3WQBGCMqUtnY4tbH5SejITrkmSxvC2UIPsbcbVOKYor2ULWAx5CwQOUI7+J+M+dt/NbXogOC8a5fWG4efgL3DzKerniXk78tsOIvaqCbPgknPw5DOc2ecN/uLG4t5lKShElrraGjZE+UFmI1IdIIi1TgcuZDUYrVvr8PYauz03gv2Sn8frwOX6faW9h1EQIaZ4OkACE4L91XB/c+jUSr/jH4nIr550fHRWqGvWc5dj6VTDiPhwLt/5SPsAmJ6cg6qB4L6HWlVhMmLQQrpuTkXwNsB4+Gms3sYSxSC5WaIaa6of/ngRro1hcfSy4EVYTStgIQLjP0cQruQWjIkKItieA+uBfxYL/CzPbY/C/B89x8LCSoISd96BXFXj+7aVwXRyO6V8VokqsUq8Q8V+H45VJfhj4cSzO3JTA+nVPbO0r7n4IpsZjAY3HZ42FHr+akmr2w+BZOD/MHLuBDDbiah1PY5iKqw9UwpIoW3StKRTvczR+Kb5OF+oSQppFixOAZvC3/0iLgj/HQsZPW5RcO41stfN28x2gcV/BwtpcYzv7UCR2X+DuC0hhOlgoqyWTCfcNmiWrgr9xLDOzgcbEyShPfq5d3efHuJvePeD8jrdm3SbJYPGmuCrKL+PuzbDEMkN96soYy/42sPGjo/fyw2mcKWIJwNoBO0c1yFmEkFbR0gTQOPg/9BTH43Ykhz9nizGLcfJTX+xc6ovor8IQLdfTmALy+GgBLn4fjLgVQp2dnwYjcKgUuHoRYT+IlXAVV8vYwsoep7h6/1qCvZ4PCJInDyM+iwXm3nbY8x2rz7e9DLkr5Ky5CrGSIHtbOJb+WoGu5qMRHVd/Lns3BSN332z4i/WirnIpRR8Ob85n+2fi1L+80YmdxMdHLqKYe2pq+jKc4691JuL2LsPCniWa0133lQhFZDpKOrPffXAYzm6aKXweXFvbQ1B4YH7deRBCmkcrE8BI/5li8N8HF20M/pyTwpTF5eoeGOrggKnjHODQOR1L56YKj5OKUi/kIf8pYziPEepMHSFDyfmfoJi1Ue2LT7F478s0ZFfqYyhXb0QPNrR4UB85He8tYKMJNhLAMwPgwbU9VB/Kbzfi86tilTqF2PDRaih+yGEBu/5cPAazc8nMqXtUM3tlJMIyWKLoa8v228FaKiaSyLV45+v/8udnzV+rHYZVp7FrYAFdqNEs2V+vgcuGZKSykYD1cDvh83CRw8FUhTOJpx/qRjchukh7/xjcDAfEb4tWe06cEEJIS2jpFBDrkVLwJ4SQh6LlTwERQghpLUoAhBCioygBEEKIjqIEQAghOooSACGE6ChKAIQQoqMoARBCiI6q+yLYf8fvEYseL8/sFYi0WCxuEUIIeVw0EsBTiWvF4sfn4f8nMCGEkNagKSBCCNFRlAAIIURHUQIghBAdRQmAEEJ0FCUAQgjRUZQACCFER1ECIIQQHaWlCcAYfm+O1fhn6eTJezc4FKqkL3Buga1YQghpz7QyAYxUzMRaf08cXetGSaAdkdH3+QjRKlqZAE6EbsTSYxWQjZpESaDFHLB1WygKv/QWt1vh3Zm48H0ooj01//H8hjkKSBz/iedXp4slhJD2TEungAqxYd5ySgKtIoOFeY+H66337g0LmQRdxU1CiHbS4pvAjZOApWaHlBBCyH10gD8GZwy/FfOxdowM+Uci4br4J1wW97TIomCoXpchPnQpogbNROAoc5gasPIaFUqupGPH5vWYd0yoCrghLs4TzkWJmHDMGKFv2MKiG5Bx8B0MWQnc5c5pyUwsfNkcvbk2mJJrOYjduRHT/10oFDAWb/hi73Q5bIz00bUzK6ipQP7JWJjNiRYqcEZ5IvrD0XDuK9aprkDG6UTMmxOJWKGG2rmvZufui2Vj+gg9fNZeNmvvTdZeKtv03xSGtcP1+beoyzj4P+y87+Ku9Vh8OW8CXrOqHyGUXGXXvmGNeO3eOJc0Gtb8HjVl6ZjnugYb6s7DD66R4j5OE+1WlZUi41g03lz2E7KFIsYbZ4+PRu8zkXBJNMeud+1gzUYanJKraVi/aD2CM/hNQkgb0OIRQK1ChC1mAepICUzGeCJuxVhYintaw3DUbCGZnEvG7h+SEXuxAl3N5fAPnI/ZZmKlWgZDsXWcHqJWB0Di+A6eF4O//8ZP8JmbObqVpCOKtbH7yCWUyMwxNWAJol8X3/v6bBwNcMAw/RLEH+KOlYL4K4CpSS+xAjOKBdwVbnDrrULGSfF8WB1rBzfs/dKz0bSX5cQFCB0FJB/h6qYho1IfFg6T8O0nwlM5qclJYjnbKLrEt8e9olJZ8GdFW5a+jWkDJcg/nyKUp5Wia29b/tr9+RYyhev5bylbZ+eULLx/d9xZPsE0iV3D2TAvTLPWR1VWmlD/SDoL+j0wdJwXTm1qYvrumVdwSCEHlMJ5xGaxUV5vOZYt84WzWIUQ8vA60J+DZr3u5fOx5m8y5ESvb/mNSL732kfozXqz3iwLtLXclq/D/r89g4Jj4TCbl8yVCCMAg1LErlRgwkGhHs9zHq4pnkOnXyPxwsxYXOYiK2eULy4GO8AiKxaSdyLh968whL4AxG/+AK9+LQRgzlBrc6Rm5LA1W2zdPR/v9i3E7oUBmF43+hASzNoRtxG7jB37B1ZUe+4s4cx7T+3cR83EhTV2sLyehunj12M3X1g/epFM3c6X1NqyYTFK961QG+kYY+32YPhbq9h5sl7912Jx4CpUuxsiIfQD1tOvPXOm0QjAFlu+mQ9viwr2/qXs/fWjH0DOrm8m3jWvUPsMhRGATaeG9eXYu282PHqzz7v2mgkhD60DjADqlVSr2E8Juhr0EApaIfvkAY3gz4ldchqpt1nv3EKu2Vst+wPx6sGf+WTMQBiyUUn8rh+QrRYbcWwfkq+yZW9zvjedUVrOfupjmMN4DFW7dyEEf+aFv8HZHKjKSFYL/pxCbDiRjRLWg7YcIRaJsk9s1zz3YylQFrFlFwlMhZL7et9fPfhzCjEvkwvC+ujdmrvs4jXgYhLe/0Y9+HPS8N7+i/x1OLiMFctEV9g+jWSRhqhMbtTBfrdGQgkh5OF1kARgjKlLZ2OLWx+UnoyE6xKul94aFbisbGrkUIpibtpE1gMeQoGgpBRR4motUwNuztoYHhv+D9VJX0JV9wrB1L5sl4EMNmwRv+0wYq+qIBs+CSd/DsO5Td7wH27MNSGw0oeMLbo+N0GtDfH14XP8PtPebnxVATv3Cw2DbDLyy1gWEo/5QH1t4e8/G0e/CsbF77/AzcNfCCOL1uKugSW37NzTmsmwVmQh8tlC1qufsC3i7pfU3xcQ7BYTZqsSESGkSR0gAQjBf+u4Prj1ayRe8VebdmmNGnHZlFsqPmDVqaluFKh41WwEwM11N/lKYWGZuRKLCZMWwnVzMpKvAdbDR2PtpmCcWyTnm6hVwkYATbfDXsniaKEtcHP1u+Zj7ZtyWBuwkUf+RcQmpmBHGtfzJoR0RFqeAOqDf1XDOfdWYT3M/mq98FovDIAl9zTP9TxxHv3eSqrZDz22/HEL3lkWjumNXvuwQ6jKsETxdThemeSHgR/HIrVMAuvXPbGVGymUqFDFFl1rCptoQ3gpvm67L1z5T7GDdRdu7j0Axn9fiOe912AyO8aqq9wFtVJWBUrY78PCbAQsmnpE19OYn5rKz1MK24SQx0qLE4Bm8Lf/6GGDv8B6uKcwVVPHGJ/8cwgsO6mQevqwWHZvYWk5/JNAzl7jmg56Igtrc437CdmHIvHNhQq2JoXpYLb44TTOFLEEYO2AnaP4Km2rhzH8xFWOtUwfnVCO/J//FEs4cqyVN5EQec2Yjjl5GMncPYmBjtgyrWE7cmydOBAylOJMYmun7AghD0NLE0Dj4N/kVEyLqVDSTY6d24MRvdQXO5fOxNF9wQgcrIeqnCR8vLHhHHtj2Rv+jR3Z3Ny+J85GLxPbYa9Pl+Dcf77AuUVCPY+PFuDi98GIW1G7nx1Hrg9cvYgw/imXRCgi01HSmV1rMHePYKZQj51T3PYQFB6ofTSzpVKQzd0Ylg3E7H+x9lYsQ9yCTojMKuQTl8fnn4jnPBvn4mbDQa+JKaCsEpSwhfUrn2AvqxsXNvMe55KOdzYmQnlLH84fBiN3+2zhGlbM59t+15z7DkKE5lNUhJDHRisTwEj/mWLw3weXNgv+HBXOfB2BsEwpnF0cMHWcHUYacc+7x2LKtO34vlkjjDS8Py8C65PzUPW0OdzGce2w14g+kF1PwzeJQq3UC3nIf4qNFMbU7peh5PxPUMzaWPcFr+yv18BlQzJSWcC2Hm4n1HORw8GUnWfi6UY3oJunEO9t/gmpJRJYvMDaG90H3W4CCR9/hQ2nC1ElE8/ZZSBweh/Gn+BuvjYQuQPBRwtRya7Pg9V1fgaa90bUHduOIUv24d9ZLCkOlAvXMMYWphU5iNq2Ec+vTBMrEkIeNy39HoAx/Gc4IH6b8A3XNnGvb7ESQkgHpaVTQIXY0JbBnxBCdJCWPwVECCGktSgBEEKIjqIEQAghOooSQK2VCyFxpBvAhBDdQQmAEEJ0FCUAQgjRURrfA3gSPLNXINJisbhFCCHkcalLAEVF3N8HePycnJyQkJAgbhFCCHlcaAqIEEJ0FCUAQgjRUZQACCFER1ECIIQQHUUJgBBCdBQlAEII0VGUAAghREdRAiCEEB1FCYA0j3MQ9sTEYM8SJ9znf93fk9PiSMTEhMJH3CaEPHmUAAghREe1zz8FMWIJHCYOFDeachHpS5ejFBJ0tvGBpbs9jJ6W8NnsTnUhCk9EI+enRNQIlUlb4EYAc+yAX0LguTwBzfr/+Gq4EUDAyGuIclcgQixrPTl8Virg2iUJnnMjcLelJ0MI4bXPEYCqAlUV4qtKhTticXVtWYWKP3O9v62G3VRHGEuB8tx05F/Kw62njGHyig+GThkrvot0PIboa2ECaRdxkxDSKu0zAZz9FGdW+wqv/zuFcr7wIi7Vlq1ejdI7tug52Ji/gOtHFuD8ttW4vHMBUjclspEBSw7PucFYxr+REEJIE9r/XwPt44vBvo54um7ap5YtTGctgKURcPPUpzh/IE0s74Euchd061aOytRY3KoSix9ICvnkWfAdbw8zQ4lQpCpG1g9hWLglSUxCzIxQxEw0Qcqn3ogbFASfMTYwYSMQ1KhQfOUU/r1xFaIyhKrs6hD0TQDsiqLgvvk6Ame+Afu+hpB0ZrvKC6A8EoEg9bYbqjtWENJGKeBpZwYp995iJfauC8LOs/3gsUStvDwXKXtDEbRPyb+9jpETfOd7wXkg6zXXXtqNAlxKbOr4hnD6IBBeo8XrYopz4rDnYE94faA5BeQTegAevU4jZFoQNH+DPgiN8YCJWt17TQHZTAqE4u/1n7mqOBen/hOKVQ2vQeS0ZA8CXhRPTE3WfncotrHfooMvgv7pjAG9pMLnXFOOguRd+OfqmBZPWxHS0XU2MDAI0tfXR2VlpVj0eFlYWCA7O1vcasLTdniGBbguuI7C+J9xSywGClF5ezCMrY2g/6wjnrV7EZ31gaq8S7j1x3lUXbmEmtti1eZwXoRQvxfRo+ICjh7+Becv5OGpfjawGjwSI7ok44dUMfWMcMM0awMUdh6JvzsY449Th/HLuQvIu2OKAQMHwc5+EP48lIDMaq6yBZwmOaLPrXIMcnHH4Fv/xc/HfoXy9xvoZjYI/bm2pWfxw69/8k03Ih6rprcj7Hvm4/jPKcis6IF+lhYYYm+J7rYT4Tm4HElxx3H+90r06D8Ig0bI0SczGkl/iG1Ys2C83gcv9umC8t+O4vCJ87jAjm/Qlx1/yMsY2/9PHPo5E/zpsiToungT/J37octNZd3noNf/Fbg5mqJT586o+SMJ3/0s/L6Gu02Djf5VJO1LgOZvcDjcptnAQK2uxSv/gGPfcmR8E4szfAkL/izBrfIcAgO1z7yLpRxDRjpj2J0YHDqvEmvWq+nCfsmFpejWzww9bqQh5nAKLly4gPOnU5DRLwDhi11hcecKjv7EPpML2bjRzRSDuv2J3XG1RyWE1GqfU0DNVHN6NVJ3J6HwJruQp/vg2VemY3hgBIb+0wfd9MRKzVaGSz+uwtvvzEXIlnCEbwmB4uM4FEACK7vXINV49pGNFmyuI+x/vDB3HVc3HCHzvBD4YwHuGtphip9c81FJczlMjs3FlA+DEMq1/VkQ/LwjkFbO2n7NG292ut+DlVKYdTmFoPdYgmLvDV3ig89OlAHd7eA+vBhRHyuE8/1sERSs16yCCWxeqT2+GXw+eB1W3YqR8tnb8JoXwp8rf/xpcxF1WQXDF72geFE8vnMAvEf2hOpyFALVPoe573hjbybYJ9GGzH3g95oVkBOjcSwFSwqnSiWwcfGDXKyqLvfQTlYvCflcxrqRhS1bufeFI+o04DiWfc5sPJOyQ/xMtrDR0Ide8Frxb7pRTEgTtDoBgIW7GmU4Lq3zwYlQtjybh8o7YL3D0Rji58NGDS0QH4JFGxtMh2ScRe4NtjQ0hZ1QUqcgOQJxDeZulBt/hJIFJhMLB82EUZmOuC0NpjTKo7A3hSUMST/YPuB+de7pCKi/O+HcJXbl7OqV8Yiom27imsxEPlv2NPkr+Axg7gEHSz2oMg5h3aGGE01KRPw7jV2vIWzGOvDVXUezXjuKceorzeOBle38kavbdswmOMJKokJ6XLjmscrjkHyRJTiTfo0+8wfJLWbvYwmz/yh3dlX1iouKxTVCiDotTgDmkI78B2Qj3dClqwp3/2Qjge8WIDUkFoUsCfzFyB69BohVm8lwhAd8l6xD6OYI7Pk2ClH7A2DXXdypoRy5GbniurprKOdm0homjGu5iBNX1aWVcCFVip4WQrxuWjkKLjQIvTdU/JRNdWWDwFau4hODpMvTwraVIQxYw9dz4psO3vG5bITDTreXDX8CZj2lLFn9DuUvwm4NLZlOa4b+MgP2UwL5jBjExGi+FHbcPhOYOfNVmy33yygk5LFRzQhf7Nq/C2FstOTat/H9AkKIQIsTwED0GjsBNq9NhZmdsVjGVBRCxU8dS/BUs4cAUrgu2oVdn/jAfbgpJNXluHTyR/z4fQKyuBFAU+4XECvLWJ9ZzR3VfXrPKty6Ka62B+zDa8ue/v0VQ/k9C/oHmnodRFKWWK252Ogh5L234fdZDNKusoT2ogcU4V8hdIbNfRIsIbpLixPAT8g/WcJ/R8B47GoMnrEAltMWwMrvHzDlAn/VRVxv+kGSxqSecHcwhConBnM9vODnr8Aifm7/LK6LVTSxXvuAJnqW5kNgxkYMquLfcVYs4hmZwUlcVedhacYC03UU/IZH84RKVjHKWMM9zZ3ZGTfB2Yz1s4GCvBT+BG7eYpmzuxmszYXdGrpL0ORtle490V9crSO2ez/FVdx0jQGq/xDm8Bu/diIuR6jbMmx0digci3y9MCVwJ9JuSGA10Q/e3FCIEKJBq+8B3IqbgzMH0lF6W4KnzWxham0LExN93MpPQfrnn+Jm7TfIHmSYCT9nXP1nlsZ8tHTiaNg0OQUEWNn7QK4RVaXweP8lmHZS4VLK95oRvbsNXCapz0oz1gq4D5Gw6KtEQuojukOZE4WUK3chsXbBXJeGKcAGPm/I2VkXQPnzWf50D17IZUsTvOTtqpkwpHIoXpc3ugl8/SY31DJhAVa9NvscXGyaTjhq0n7OZP1/CWxdfdmZtJLMBA7iKkdqZKhx3PKze5F4UZhmM7zfF8sJ0VHt/3sAzaVnzD8GWlNSKBa0hDtW7vFlAZ31Hn85jrRr1dDraw9naxbkVCYsxKUg5K0gJHBRcgb3bL4ZiosBw865SEhMRxnrG5uNcIa8j0R4gkYRASUf08XvAbBQVyxlvd2z8Th1pZolBFs4j7KCtDP3dI4fgg5xvWEnBO4KgGPXLEQFKBDB9X75Y3HfA5iCoHiuPZHzx9gzx55/Jn/KcvXPTnj+3oqdw3h2DvyTL9xjoMGsTKJCcfpxHM9kx+pqCvmLdmy0okLW/kDM2qYU85UTFu4MwEs9WfDMScHxs/moFusaFOVCj41YNP4UhPNC7JrzEgxrypF1LB7pN/RgOuQl2EnKUNDHBAb3/R6AFK5LwqF4kSXGG7lI+SUN+dx3Ntjx+tv0h2luBLxWctfWxOfC3usTGgkPq9vITf4RaWX90fPGXCT13YWAQWVISRHbqv2cC+Iw9/1Q8XdCCKml5U8BqakubGXw58Rg1b9ikFXMAvmLrnAf746X+uQjavkeNHWrlx0MmTuDsDdTCvvX3Fl9V8iNy5B7LAKBM2uDv5qiBCi2xKPaQmjbfbQV8KcSMSt9xeD/CGVEQLEwHHEXy2DwVyfh+C526FmpRNzngVDUBX9OAoL9ViEmvQDoawdXrq5Tf+BsBFb9m7td3EB8MFbtSEFulRRWo4XPoX91PFb53+fLbXXKEbdcgZDvlSjobAY7F+793PHkMK3JxKEjp8R6TSlHxOffIr1YAjMH9p4x/cByNzIvZrK2TOvbcjTBdTYKWOVPwZ+QpnScEcDjcq9eeZPUvgnMEgMhhLQnHWcEQAghpEUoARBCiI6iBEAIITqKEgAhhOgouglMCCE6ikYAhBCioygBEEKIjqIEQAghOooSACGE6ChKAIQQoqMoARBCiI6iBEAIITqKEgAhhOgoSgCEEKKjKAEQQoiOogRACCE6ihIAIYToKEoAj50Uk9dGIWb/LgQ6i0WEEPIEUAJ47HriaYm4SgghT1D7/HPQI5bAYeJAcaMpF5G+dDlKIUFnGx9YutvDiEVVLpvdqS5E4Ylo5PyUiBqhsg5wR0D4FNhkR8BnNf1pbUJI87TPEYCqAlUV4qtKhTticXVtWYWKP3O9v62G3VRHGEuB8tx05F/Kw62njGHyig+GThkrvksXmKBfX0MY0MiCENIC7TMBnP0UZ1b7Cq//O4VyvvAiLtWWrV6N0ju26DnYmL+A60cW4Py21bi8cwFSNyWykQFLDs+5wVjGv5EQQkgT2v9/BOvji8G+jni6btqnli1MZy2ApRFw89SnOH8gTSzvgS5yF3TrVo7K1FjcqhKLH2RGKGImmiDl0yCkjVLA084M0s6svFiJveuCsPNsP3gsZuX2Ynl5LlL2hiJon5J/u8AQTh8shNeogTDpLnbHm6jntGQPAl4sQJS7AhFCCT7+OgD216MwZdtNzP1gEuz6smENo2LHj+KPL6TBhnw2xsDDUtyoU86uwxNB8XdhM2khFH9/AWaG4vmoiqGMDsHcHbWfFyFEV3U2MDAI0tfXR2VlpVj0eFlYWCA7O1vcasLTdniGBeMuuI7C+J9xSywGClF5ezCMrY2g/6wjnrV7EZ31gaq8S7j1x3lUXbmEmtti1eYY4YZp1gao6e0I+575OP5zCjIreqCfpQWG2Fuiu+1EeD5fjqS44zj/eyV69B+EQSPk6JMZjaQ/xDZmrMXG8YPQKf8MEo7+CmVdPXtYXI3CUfEyLUa/Cce+5cj4JhZnhBI4TWLXcKcLRrz6Enr9/jMSUpTIZse35I4/chBufHcEF/i6mjrrdUdZXiWM/2qKp3KSEHs0DRcupOPsqTTku63FpndG4Oni8zickALlhTzU9OwH0zvnEfXzfT5zQohO0OIEANy9moxr+cbQszCDwdNPo7u5HL1fnohe/Xui9PwZ3G7JXWA+AZigR+VRLHovGAdPp+CX+GgU9J8Ix/4WGGRyFVGLZ2HzjylI+eUIDkuG4e+DLWCA/yI6qUBoQz4Mz/0Sig9CvsMv7P18vdvP4e/DLGDc5U98l5DJV7tnAjA2QPH3gfALOYgU/viHUT34NQw3M4X0zh78dJ6vrCHvN3ac05ZwnmaDbr/twYL137HtNGSyodJ0bwUGG11B7D9nY3MyVy8Jh6JjkfDfPFRVqsQWCCG6qn3eA2g2FWqU4bi0zgcnQtnybB4q7wDd+o3GED8fljRaLvd0BNQndRLOXkI1W6qU8diecVcoZMqjMpHPlj1N/ioUcHaswmKNKSFWb18WctlS2tNMKLifG2mI2ab+/nJEnf2dXaUEBj2EKaGWKCjjpo1MYfu2HPXvLkdxUdPTSYQQ3aLFCcAc0pH/gGykG7p0VeHun0ko/G4BUkNiUciSwF+M7NFrgFi12cpRcKFBcLyh4hNAdWWxsF2rXMUCMyDp8rSwzZPCzGUyApaHIjR8F6K+jULUfg9YiXsfqCgXceJqnYJy/vg9n7EXtlsg5pvvkX5DAqvxK7FnTwTWzfKAnZG4kxCi87Q4AQxEr7ETYPPaVJjZGYtlTEUhVPzshgRPtWYI0Go28NnwFcJmTYfTICkklflIO/YjfvxPCsQJoscvYyfmTfNC0FdJyCozgI2LD4K270KgS8tHE4SQjkeLE8BPyD9Zwn9HwHjsagyesQCW0xbAyu8fMOUCf9VFXNecjXm0nKfAdaAE5adD4TnFB37+cxH0WTjC9+bzPfgnpxgpkaug8JkCr3UJKLhjCMd358JJ3EsI0V1afQ/gVtwcnDmQjtLbEjxtZgtTa1uYmOjjVn4K0j//FDdrv0H2OFj05OfZr+clid9bENh426MZs/9tQtqzv7gmMDQyFNcExYlhOJXHVrpJ8YxQRAjRYe0/AeSF4/zS6UjW+A5ALRWqT61G+gq2f8UcnFw/h9WbjtTPQ1Fa8pifcjmSzt/sNRsXhrVzfeH7vi8CNuzBuqFcH7wNOS/EzpgYRG3wUUssmbh+gy0GOmHdLHbsRSsR4Ay8EbQTeyLWIYCdC3c+iuWheNUcKFcm4aDwRkKIDtPqEYCG6kLUlBSKG09ATjhCd6Qgt9oQNqPd4T7eHXK94wifl9S2CaBJCVi3IwG55ezYLuzYL/REdUknZCpzUd3dBk7sXLjzcbXWQ+6hcAQFRmmMUgghuqn9fxOYEELII9FxRgCEEEJahBIAIYToKEoAhBCioygBEEKIjqIEQAghOooSACGE6ChKAIQQoqMoARBCiI564l8EI4QQ8mTQCIAQQnQUJQBCCNFRlAAIIURHUQIghBAdRQmAEEJ0FCUAQgjRUZQACCFER1ECIIQQHdVOEoAUjqMd+X+qTggh5PFoFwnAZHIQZs2di9C5rpQECCHkMWkXCaBgbxAiEq+j52i/NkwCcvisisCeEB9x+1F4HMcghJBHo51MAZUjbp0CYW2aBAxhZmECaRdx85F4HMcghJBHox3dBG6cBAzEPYQQQtpeO/xroFI4zgzB3FdNkf/jOszdmIQycU9zOS2ORMDIxukja787FNuEdZtJC6H4+wswM5Tw26riXJz6TyhW7VPy2zypI3w/9oHzQNbLF6qhvCAJu3xWoWzJHgS82HickrV/PGZtu4u74jYhhLRXnQ0MDIL09fVRWVkpFj1pKuSeTECukSNeffVVOBrlIvFkLqrFvc1R00UfKCxFt35m6HEjDTGHU3DhwgWcP52CjKss+M8IxUpPOZ6uuICjh3/B+Qt56GIpx5CRzhh2JwaHzqtYK3YICF8C136dcOV4HI6fu4Dskm4wHaCPPyNjkXKfYyjZMQghpL1rx/8PgBsJsBHAq72Ru28WZu34vYW9aicEfRMAu6IouM+MEMsYcx+E/ssDZnkxCPwoHMraRqWuCNqmgF1lAhb5hCBtVCB2LXCE3ulQeH4cV39sI0MYFhWjmN+4xzEIIUQLtKN7AI2VV6tY4JVA2t1QLHl4ZhMcYSVRIT1uS33w55THIeliOWDSj/X9mdzr/NST1MoRr/fiCkR1wZ8QQrRbO00AUsjfD8bH4/ujPDkUsz5La7M59f4y7t6ABPIZBxATE6PxUozg5vRNYObMFjm7EJVYAJWhHXz/Lwa7NgfBx8WsjR5RJYSQJ68dJgAh+AeNt0L5L6HwWxnX4pvAD1YM5fcs6B9o6nUQSVlcHe6pJB+87RuKmDO5QF87eMwKw1cbfGDDt0EIIdqtnSWA+uBfxgX/5W0f/IuruBYNUP3HFoRvCW/itRNxOUJdTvmVOIQv8YPXtEXYebYMkoEe8JtB4wBCiPZrRwlAM/j7tlXwl5nAUVzlpP2cyfr/Eti6vg+bTmJhU6SGMFSP8+Vp2BuvZOMCtks2QCir1eAYhBCiDdrJU0CNgz8XaB+OFD4b98DDUoXc5B+RVtYfPW/MxaodUrguCYfiRUPgRi5SfklDfhWr3tUU/W36wzQ3Al4rEwDnIOz63/4oSzmFtGvcQ6gGsB3tBKvuBYgL8EFoxr2OMY8do63uWBBCyKPTLr4HYOK5CiFvDkLZaRaYP4nFDbH84ahw5vJTGGY/BP0HDsIgC31cP/0djvxXhcyfE5Ans0Z/ywEYZM32/ZW9+hnjqRtKHNr/LdKuqIC7z0Bu/zwGDLCBDVdnwLPQKzqP/2wMxNZU7nsC9zuGuJsQQtqxdjMCcB3vjFMHYugRS0IIeUza8RfBCCGEPErt+otghBBCHh1KAIQQoqMoARBCiI6iBEAIITqKEgAhhOgoSgCEEKKjKAEQQoiOogRACCE6ihIAIYToKEoAhBCioygBEEKIjqIEQAghOooSACGE6ChKAIQQoqMoARBCiI6iBEAIITqqXSSATk89hc6SJ3gqzkHYExODPUucxIJHwQehj/wYHCkmr41CzP5dCHS+33+9J4TounaQALrBWD4Gw1/+K7qLJeRh9MTTEnGVEELu4/EngE5/Yb191uPv/Bd04pZPAaob11BcWIbbYhXyMHIR4e8B94leWBV/VywjhJDGHn8C6PIsBr3MevwD/op+3FJuge7dn4GhsQFYLmikS5/heG5gT3QWtwkhhLSNx58AaspRnJuLa6UlKOOWhWxZyJa5JagWq9Trhh69e0HfbDj6m3YRywghhLSFTqampneNjIxQVFQkFj0iXc1g42gDAy7w95DB4A8W9J81wzOlbAm27MGWf7DlsyXISTqJa1Xcm7rhmREvw7wHW71zG7eqVKip+B05/81BWQ23v6UM4fRBILxG28BEKpQU58Rhz8Ge8PrADvglBFOWJwg7OEZO8J3vBeeBJpCK8+qqGwW4lBiBoC1JKBeK6hiO9sXC6c4Y2EsKCTdkqVGh+GIMQgIikMbfBPaAicYxbOATuhIeVp1QkBgGxbo4oU1rDwTOfAP2fQ2FdlTFyP3l3whdHQUlt58zIxQxE02Q8tlnyH/ND+4DDYEbKQiZFgQs2YOAFwsQNX4WIu7WTgNJIZ88C77j7WFmKFxMeUEaDn6WC7uV7rDKjsJ4RQT46rVtf+qLBJtP4ONiBf4tLHnnJu/CotUxuM63IJLKMXmmL8aPMINhN7Gskp3z6QbnDCcEfRMAu6IozE0wg2KyHczY7yFrvzsU27j9Uji+/zF8xtjW/X7KC5SI/yII4ckNP21CyMN6fCOAu3egqqjErVvVwlJ1mwVzbpstb7FlBVuquGW1EIQ4ne7gbu2w4C9PoYt+N3TpdBuqO2JZi0jhuiQUAa/ZoGeVEgkHYhBzIAH5Bs7wnSGHnlirjjUL2OEBcLftieqLCawuq38oBfkwgc34QIQvcWUt1rNhQXP7XHfYdq/GpWNc2+x17BKqDUxY2mmKDTxWBbLgr4fi5DDMqgv+7LjBPnDsg7p2ErL1YDbKB6tCJsOgwYM9Zp6zIM+OgJe7O9xZ8FdLXxpsZgQjaLojzDrnI+UQ124clFUDMPmTV2F2j4eFTN5gn9coIO0Hrn4Csqqk7Dx8sfKDfqh7i9QVgZ+vxPRRZtC7loI48XNVVhgI57zRBzYN2+/uiIAJEsSvnAJ3dt61wd91cRgCx9vC4E+xnUNpKOtuA/dF7Dxe5N9JCGlDj3wEIOk9FDbmT4tbzfEX6Ol3qQ8wvDuouPob8vP+xPUblfUJoiW4Rz3n2EHvchTrXUeo9UoNMT1kOyZbS1Be1zs3g8/GUHhYlrEeti+CDqn3PlmvfeMqfl/Sci+s+oUVvRiAiCVOMClOQahfEOLKhJqa1EcAp1gyCofiRUMU/xIKv+VxEN4iHrdvPmIW+iE8gy9kWHD8ZDsUI8qQsOSfCDnDPgC+l24FVcZevB2wU2M04tRwBGDOjv0vD1iVsfPzZedXV5lLisJ5gH0umiMAKzY8alDfWoGIEFeYFCRg0T9DkMbqCsfSY734QBbI6z/V+rYNoIz0wryvynC3dgTQvbj+s6vFfj+R7PfT6XQofD6u/TwYa1+EBbvDNHMnPAL2ioWEkLbwyEcAf+msJ/Tcm/1qGPzZ4KHgLDKUuSgqbWXwZ1ydbFhIKsapr9SDP6cYO39M05zOMfeAo6WEBddDWKcR/DlKRPybq28Im7GOfImTqz0bF7CgtulewV+dHhxnhsCPC/6nwzGrLvgztcdVxqkFf0454o4pWT0T9LNjWVss5eRf3Kd57k2QusphJVFB+eM6teDPYe2uP47f7/GZ5h5rUD8jEcoCtuxmwM6E4wGXIWwcVHQKOzWCP4drOwGZdyWwGTFF86RvZCJFPfgzHi5yGKAAx3ccqv88OBm7kJbHOhJ9bFn6IIS0pUeeAG7ffsiHO++U4PfMa2jVlL8as54sUFX+DmWDwMNreIpWPVkwAq7nxDcdXONzWahiY4deNvxm/2fu03YDeoO8MPdVM1SznvuqjxvMpYvHlQzxQUxMjOZrlh2/z8R0NF9VUI6CrAeFf8DelAvX15F7tIm65SqoxFVNrO0LDeunobiCLbr3ZGMVLqL3xNPdANUfSqTw+xsoz2QjNrbsZQIHoURQnI/j4mqtnvyXF0zguulAg2vfA3dztosdsz9fkxDSVh55Aqi5UQT+fm4Dxf89glOnLuOWuN20O7hx4Zx4Q7gNqFRNB/S20My2q2/k4zqLuFKz52FvLRY2UJzOAh8/l974dfBEJjQ67M3Or9Wo/lNcfdLu3OOzqsxFUhPXLLziWfohhLSlR38TuCIXObn1Yf4uf6P3FrqbD4bFgD6498OdLPj/dhy/5VWK2w/n5i0WdbubwZrrTTbUXaJ5EzjrOj8N0dPcGeo3eus4m/FTIAV5Qr+3tu0hw/jN+8s/CMXnKSiW2mDyoiC49xLLOSVl/HENbhcgfEt4k6+dh3KFui1QfYe7k24Ks7HCtgZzadPX2CzXcZP9eiTP2sBOLNEg7Y+e3VluLLiEZLHoXvjPsJseyn7c0uR1h2+JanqUQQhptcfwFBAL5JdOIuf6TeSfOYKUo0dx9kQizv3+F/QyvEf4r7mO3FMJ+O2Ptgn+nIO/cYHTBC95az69wz3CqHhdDo2/npAThVNXWGCzdsFcl4bh0QY+b8hZGwVQ/iz0SQ8eTWc9Wq7tJp54aUL5oSCs2p8FlaEdfDcEwZWb2+GcSUBmETuujSt87zE6aI2kM7+z85PA1tWXnb06Q3i8/xJMm3HOTYtCcgbryxvZY/oMzZb5m8CzndC/kwqXUr5nmV8svoeDqZfYGIV9hu+68FNdhJBHr7OBgUGQvr4+KivbLtg2dhvlBYXo1Pt5DLDohac6VeNWUR6uV+lD1ksqfsv3DmrKinAt8zwu/TcLN2616llPkRl8NnyJ5R+4w6IgCkezWS/010pYuDmiv9WLeO2lQehjZo1ho9zh4+cFy5u5uGPYA/gjCd/9zCrjBlIudcNI52F4zvHvcBvKevxWQ2DH1Z/1P3jR9A6y9i/HkmhhTkX12y+40X8sHAcPg6v7yxjUl400htrB8bXpeG/aMNyIOYpsDIfbNBsYiMf489dYnJWOhNPQ5+D4t0H48xAL/tV5+LV8EMY62kD+t4l4eWAfmNkMg52dI9yn/A983pajeD/XFjPCDdOsDZCX/B0S+IJ6FqPfhGPfcmTs/gFnuIKLF9HD/lU8Z2UD51eHwcykP4bYOWGKYiackYc/DQ1hUJKB3bF87fu2Pfy1abAxLK5r+8LJGxg01hHPDXXFxNrPlW/7f+E+UIriXzZj7udK8Ut+FnCa5Ig+lRn4pvZYItXZKzAY6YQhzzliYt052sFujAd8fN7HqybfIfZXsTIhpA0A/w8TsPTHZisGRgAAAABJRU5ErkJggg==;imageBorder=default;" parent="1" vertex="1">
          <mxGeometry x="1016" y="880" width="384" height="288" as="geometry" />
        </mxCell>
        <mxCell id="nvwnlEwFlLKaPRoTBn40-63" value="&lt;span&gt;&lt;font style=&quot;font-size: 16px;&quot;&gt;ESTRUTURA DE PASTAS&lt;/font&gt;&lt;/span&gt;" style="text;html=1;strokeColor=none;fillColor=none;align=right;verticalAlign=middle;whiteSpace=wrap;rounded=0;shadow=1;fontFamily=Lucida Console;fontStyle=1" parent="1" vertex="1">
          <mxGeometry x="1000" y="840" width="400" height="40" as="geometry" />
        </mxCell>
        <mxCell id="nvwnlEwFlLKaPRoTBn40-64" value="" style="curved=1;endArrow=classic;html=1;rounded=0;exitX=0.427;exitY=0.423;exitDx=0;exitDy=0;exitPerimeter=0;strokeColor=#ffff00;startSize=6;strokeWidth=8;fillColor=#fff2cc;" parent="1" source="nvwnlEwFlLKaPRoTBn40-57" edge="1">
          <mxGeometry width="50" height="50" relative="1" as="geometry">
            <mxPoint x="760" y="1230" as="sourcePoint" />
            <mxPoint x="1000" y="930" as="targetPoint" />
            <Array as="points">
              <mxPoint x="600" y="990" />
              <mxPoint x="680" y="940" />
              <mxPoint x="760" y="930" />
              <mxPoint x="820" y="930" />
            </Array>
          </mxGeometry>
        </mxCell>
        <mxCell id="nvwnlEwFlLKaPRoTBn40-67" value="" style="curved=1;endArrow=classic;html=1;rounded=0;exitX=0.427;exitY=0.423;exitDx=0;exitDy=0;exitPerimeter=0;strokeColor=#b85450;startSize=6;strokeWidth=8;fillColor=#f8cecc;" parent="1" edge="1">
          <mxGeometry width="50" height="50" relative="1" as="geometry">
            <mxPoint x="420" y="1180" as="sourcePoint" />
            <mxPoint x="1000" y="960" as="targetPoint" />
            <Array as="points">
              <mxPoint x="530" y="1090" />
              <mxPoint x="600" y="1030" />
              <mxPoint x="680" y="980" />
              <mxPoint x="750" y="960" />
            </Array>
          </mxGeometry>
        </mxCell>
        <mxCell id="nvwnlEwFlLKaPRoTBn40-68" value="" style="curved=1;endArrow=classic;html=1;rounded=0;exitX=0.427;exitY=0.423;exitDx=0;exitDy=0;exitPerimeter=0;strokeColor=#82b366;startSize=6;strokeWidth=8;fillColor=#d5e8d4;" parent="1" edge="1">
          <mxGeometry width="50" height="50" relative="1" as="geometry">
            <mxPoint x="350" y="1270" as="sourcePoint" />
            <mxPoint x="1000" y="1000" as="targetPoint" />
            <Array as="points">
              <mxPoint x="460" y="1180" />
              <mxPoint x="530" y="1120" />
              <mxPoint x="610" y="1070" />
              <mxPoint x="680" y="1020" />
              <mxPoint x="740" y="1000" />
              <mxPoint x="810" y="1000" />
            </Array>
          </mxGeometry>
        </mxCell>
        <mxCell id="nvwnlEwFlLKaPRoTBn40-69" value="" style="curved=1;endArrow=classic;html=1;rounded=0;exitX=0.427;exitY=0.423;exitDx=0;exitDy=0;exitPerimeter=0;startSize=6;strokeWidth=8;fillColor=#d5e8d4;strokeColor=#82b366;" parent="1" edge="1">
          <mxGeometry width="50" height="50" relative="1" as="geometry">
            <mxPoint x="480" y="1010" as="sourcePoint" />
            <mxPoint x="1000" y="1030" as="targetPoint" />
            <Array as="points">
              <mxPoint x="580" y="920" />
              <mxPoint x="650" y="920" />
              <mxPoint x="720" y="1010" />
              <mxPoint x="820" y="1030" />
            </Array>
          </mxGeometry>
        </mxCell>
        <mxCell id="nvwnlEwFlLKaPRoTBn40-71" value="DIAGRAMA UML (SIMPLIFICADO)" style="text;html=1;strokeColor=none;fillColor=none;align=left;verticalAlign=top;whiteSpace=wrap;rounded=0;fontFamily=Lucida Console;fontSize=16;shadow=1;fontStyle=1" parent="1" vertex="1">
          <mxGeometry x="160" y="40" width="1240" height="40" as="geometry" />
        </mxCell>
        <mxCell id="dzLeR_utrmkmIb1Fz9iY-1" value="" style="rounded=0;whiteSpace=wrap;html=1;fillColor=none;strokeColor=#d79b00;strokeWidth=2;shadow=0;" parent="1" vertex="1">
          <mxGeometry x="190" y="1550" width="200" height="430" as="geometry" />
        </mxCell>
      </root>
    </mxGraphModel>
  </diagram>
</mxfile>
